<svg data-v-d3f97b9e="" xmlns="http://www.w3.org/2000/svg" viewBox="0 0 260.31745623268745 180"><!----><!----><!----><g data-v-d3f97b9e="" id="bfd6f30e-b25f-410d-8389-0e4f0477d581" fill="#19CEDA" transform="matrix(3.968253998289063,0,0,3.968253998289063,-3.015869895046478,95.22222534983666)"><path d="M0.97 13.58L0.76 10.01L1.30 10.01L1.30 10.01Q1.50 11.34 2.37 12.10L2.37 12.10L2.37 12.10Q3.23 12.87 4.51 12.87L4.51 12.87L4.51 12.87Q5.03 12.87 5.46 12.74L5.46 12.74L5.46 12.74Q5.89 12.61 6.20 12.38L6.20 12.38L6.20 12.38Q6.51 12.15 6.68 11.84L6.68 11.84L6.68 11.84Q6.85 11.52 6.85 11.13L6.85 11.13L6.85 11.13Q6.85 10.79 6.74 10.55L6.74 10.55L6.74 10.55Q6.64 10.30 6.34 10.07L6.34 10.07L6.34 10.07Q6.05 9.84 5.54 9.60L5.54 9.60L5.54 9.60Q5.03 9.37 4.21 9.06L4.21 9.06L4.21 9.06Q2.58 8.43 1.79 7.59L1.79 7.59L1.79 7.59Q1.01 6.76 1.01 5.63L1.01 5.63L1.01 5.63Q1.01 4.97 1.26 4.42L1.26 4.42L1.26 4.42Q1.51 3.88 1.97 3.49L1.97 3.49L1.97 3.49Q2.42 3.09 3.06 2.88L3.06 2.88L3.06 2.88Q3.70 2.66 4.47 2.66L4.47 2.66L4.47 2.66Q5.18 2.66 5.81 2.88L5.81 2.88L5.81 2.88Q6.44 3.11 7.06 3.56L7.06 3.56L7.31 2.86L7.64 2.86L7.80 5.88L7.25 5.88L7.25 5.88Q6.92 4.73 6.20 4.12L6.20 4.12L6.20 4.12Q5.49 3.51 4.55 3.51L4.55 3.51L4.55 3.51Q3.68 3.51 3.14 3.94L3.14 3.94L3.14 3.94Q2.60 4.37 2.60 5.04L2.60 5.04L2.60 5.04Q2.60 5.33 2.70 5.56L2.70 5.56L2.70 5.56Q2.80 5.80 3.07 6.01L3.07 6.01L3.07 6.01Q3.33 6.22 3.79 6.43L3.79 6.43L3.79 6.43Q4.26 6.65 4.98 6.92L4.98 6.92L4.98 6.92Q5.96 7.29 6.66 7.68L6.66 7.68L6.66 7.68Q7.35 8.06 7.79 8.50L7.79 8.50L7.79 8.50Q8.23 8.95 8.44 9.44L8.44 9.44L8.44 9.44Q8.65 9.93 8.65 10.51L8.65 10.51L8.65 10.51Q8.65 11.23 8.34 11.82L8.34 11.82L8.34 11.82Q8.04 12.40 7.48 12.82L7.48 12.82L7.48 12.82Q6.93 13.24 6.17 13.48L6.17 13.48L6.17 13.48Q5.40 13.72 4.48 13.72L4.48 13.72L4.48 13.72Q3.64 13.72 2.97 13.49L2.97 13.49L2.97 13.49Q2.30 13.26 1.58 12.74L1.58 12.74L1.30 13.58L0.97 13.58ZM14.10 10.92L14.10 9.59L14.10 9.59Q12.92 10.12 12.33 10.58L12.33 10.58L12.33 10.58Q11.73 11.03 11.73 11.52L11.73 11.52L11.73 11.52Q11.73 11.93 11.96 12.17L11.96 12.17L11.96 12.17Q12.18 12.40 12.52 12.40L12.52 12.40L12.52 12.40Q12.85 12.40 13.15 12.29L13.15 12.29L13.15 12.29Q13.44 12.17 13.65 11.97L13.65 11.97L13.65 11.97Q13.86 11.77 13.98 11.50L13.98 11.50L13.98 11.50Q14.10 11.23 14.10 10.92L14.10 10.92ZM12.12 9.70L14.10 8.85L14.10 8.26L14.10 8.26Q14.10 7.45 13.81 7.08L13.81 7.08L13.81 7.08Q13.52 6.71 12.92 6.71L12.92 6.71L12.92 6.71Q12.52 6.71 12.31 6.92L12.31 6.92L12.31 6.92Q12.10 7.14 11.91 7.64L11.91 7.64L11.91 7.64Q11.79 7.99 11.56 8.19L11.56 8.19L11.56 8.19Q11.33 8.39 10.92 8.39L10.92 8.39L10.92 8.39Q10.53 8.39 10.32 8.15L10.32 8.15L10.32 8.15Q10.11 7.91 10.11 7.48L10.11 7.48L10.11 7.48Q10.11 6.80 10.84 6.41L10.84 6.41L10.84 6.41Q11.58 6.02 13.06 6.02L13.06 6.02L13.06 6.02Q14.63 6.02 15.30 6.59L15.30 6.59L15.30 6.59Q15.97 7.15 15.97 8.48L15.97 8.48L15.97 11.55L15.97 11.55Q15.97 12.74 16.45 12.74L16.45 12.74L16.45 12.74Q16.72 12.74 16.94 12.56L16.94 12.56L17.15 12.96L17.15 12.96Q16.95 13.31 16.54 13.52L16.54 13.52L16.54 13.52Q16.13 13.72 15.61 13.72L15.61 13.72L15.61 13.72Q14.97 13.72 14.63 13.33L14.63 13.33L14.63 13.33Q14.29 12.94 14.29 12.22L14.29 12.22L14.22 12.22L14.22 12.22Q13.82 12.95 13.17 13.33L13.17 13.33L13.17 13.33Q12.53 13.71 11.70 13.71L11.70 13.71L11.70 13.71Q10.82 13.71 10.29 13.21L10.29 13.21L10.29 13.21Q9.76 12.71 9.76 11.91L9.76 11.91L9.76 11.91Q9.76 11.30 10.30 10.76L10.30 10.76L10.30 10.76Q10.85 10.22 12.12 9.70L12.12 9.70ZM20.37 6.08L20.37 7.07L20.43 7.07L20.43 7.07Q21.35 6.02 22.83 6.02L22.83 6.02L22.83 6.02Q23.65 6.02 24.32 6.31L24.32 6.31L24.32 6.31Q25.00 6.59 25.50 7.10L25.50 7.10L25.50 7.10Q26.00 7.62 26.27 8.32L26.27 8.32L26.27 8.32Q26.54 9.03 26.54 9.87L26.54 9.87L26.54 9.87Q26.54 10.71 26.27 11.41L26.27 11.41L26.27 11.41Q26.00 12.11 25.51 12.63L25.51 12.63L25.51 12.63Q25.02 13.15 24.34 13.43L24.34 13.43L24.34 13.43Q23.66 13.72 22.86 13.72L22.86 13.72L22.86 13.72Q21.50 13.72 20.79 12.80L20.79 12.80L20.73 12.80L20.73 14.74L20.73 14.74Q20.73 15.30 20.79 15.64L20.79 15.64L20.79 15.64Q20.85 15.97 21.03 16.16L21.03 16.16L21.03 16.16Q21.21 16.34 21.54 16.41L21.54 16.41L21.54 16.41Q21.87 16.48 22.41 16.49L22.41 16.49L22.41 17.08L17.58 17.08L17.58 16.49L17.58 16.49Q17.96 16.48 18.20 16.41L18.20 16.41L18.20 16.41Q18.44 16.34 18.57 16.16L18.57 16.16L18.57 16.16Q18.70 15.97 18.75 15.66L18.75 15.66L18.75 15.66Q18.80 15.34 18.80 14.84L18.80 14.84L18.80 9.63L18.80 9.63Q18.80 8.99 18.77 8.41L18.77 8.41L18.77 8.41Q18.75 7.83 18.70 7.59L18.70 7.59L18.70 7.59Q18.63 7.27 18.39 7.14L18.39 7.14L18.39 7.14Q18.14 7.01 17.56 7.01L17.56 7.01L17.56 6.47L20.37 6.08ZM22.75 6.82L22.75 6.82L22.75 6.82Q22.30 6.82 21.90 7.01L21.90 7.01L21.90 7.01Q21.49 7.21 21.25 7.53L21.25 7.53L21.25 7.53Q21.01 7.85 20.89 8.34L20.89 8.34L20.89 8.34Q20.76 8.82 20.76 9.38L20.76 9.38L20.76 10.33L20.76 10.33Q20.76 11.33 21.25 12.03L21.25 12.03L21.25 12.03Q21.78 12.80 22.75 12.80L22.75 12.80L22.75 12.80Q23.60 12.80 24.02 12.09L24.02 12.09L24.02 12.09Q24.43 11.38 24.43 9.90L24.43 9.90L24.43 9.90Q24.43 6.82 22.75 6.82ZM31.89 10.92L31.89 9.59L31.89 9.59Q30.72 10.12 30.12 10.58L30.12 10.58L30.12 10.58Q29.53 11.03 29.53 11.52L29.53 11.52L29.53 11.52Q29.53 11.93 29.75 12.17L29.75 12.17L29.75 12.17Q29.97 12.40 30.31 12.40L30.31 12.40L30.31 12.40Q30.65 12.40 30.94 12.29L30.94 12.29L30.94 12.29Q31.23 12.17 31.44 11.97L31.44 11.97L31.44 11.97Q31.65 11.77 31.77 11.50L31.77 11.50L31.77 11.50Q31.89 11.23 31.89 10.92L31.89 10.92ZM29.92 9.70L31.89 8.85L31.89 8.26L31.89 8.26Q31.89 7.45 31.61 7.08L31.61 7.08L31.61 7.08Q31.32 6.71 30.72 6.71L30.72 6.71L30.72 6.71Q30.31 6.71 30.10 6.92L30.10 6.92L30.10 6.92Q29.89 7.14 29.71 7.64L29.71 7.64L29.71 7.64Q29.58 7.99 29.35 8.19L29.35 8.19L29.35 8.19Q29.12 8.39 28.71 8.39L28.71 8.39L28.71 8.39Q28.32 8.39 28.11 8.15L28.11 8.15L28.11 8.15Q27.90 7.91 27.90 7.48L27.90 7.48L27.90 7.48Q27.90 6.80 28.64 6.41L28.64 6.41L28.64 6.41Q29.37 6.02 30.86 6.02L30.86 6.02L30.86 6.02Q32.42 6.02 33.10 6.59L33.10 6.59L33.10 6.59Q33.77 7.15 33.77 8.48L33.77 8.48L33.77 11.55L33.77 11.55Q33.77 12.74 34.24 12.74L34.24 12.74L34.24 12.74Q34.51 12.74 34.73 12.56L34.73 12.56L34.94 12.96L34.94 12.96Q34.75 13.31 34.34 13.52L34.34 13.52L34.34 13.52Q33.92 13.72 33.40 13.72L33.40 13.72L33.40 13.72Q32.76 13.72 32.42 13.33L32.42 13.33L32.42 13.33Q32.09 12.94 32.09 12.22L32.09 12.22L32.02 12.22L32.02 12.22Q31.61 12.95 30.97 13.33L30.97 13.33L30.97 13.33Q30.32 13.71 29.50 13.71L29.50 13.71L29.50 13.71Q28.62 13.71 28.08 13.21L28.08 13.21L28.08 13.21Q27.55 12.71 27.55 11.91L27.55 11.91L27.55 11.91Q27.55 11.30 28.10 10.76L28.10 10.76L28.10 10.76Q28.64 10.22 29.92 9.70L29.92 9.70ZM36.48 6.93L35.46 6.93L35.46 6.30L35.46 6.30Q36.30 6.06 36.87 5.58L36.87 5.58L36.87 5.58Q37.44 5.10 37.72 4.47L37.72 4.47L38.43 4.47L38.43 6.16L40.04 6.16L40.04 6.93L38.43 6.93L38.43 11.23L38.43 11.23Q38.43 12.10 38.62 12.46L38.62 12.46L38.62 12.46Q38.81 12.82 39.26 12.82L39.26 12.82L39.26 12.82Q39.80 12.82 40.08 12.32L40.08 12.32L40.38 12.73L40.38 12.73Q39.98 13.72 38.53 13.72L38.53 13.72L38.53 13.72Q37.56 13.72 37.02 13.27L37.02 13.27L37.02 13.27Q36.48 12.82 36.48 12.01L36.48 12.01L36.48 6.93ZM47.63 11.79L48.02 12.28L48.02 12.28Q46.75 13.72 44.84 13.72L44.84 13.72L44.84 13.72Q43.97 13.72 43.27 13.45L43.27 13.45L43.27 13.45Q42.56 13.17 42.06 12.68L42.06 12.68L42.06 12.68Q41.55 12.18 41.27 11.49L41.27 11.49L41.27 11.49Q40.99 10.81 40.99 9.97L40.99 9.97L40.99 9.97Q40.99 9.10 41.29 8.38L41.29 8.38L41.29 8.38Q41.58 7.66 42.12 7.13L42.12 7.13L42.12 7.13Q42.66 6.61 43.39 6.31L43.39 6.31L43.39 6.31Q44.13 6.02 45.01 6.02L45.01 6.02L45.01 6.02Q46.49 6.02 47.32 6.82L47.32 6.82L47.32 6.82Q48.15 7.62 48.15 9.06L48.15 9.06L48.15 9.06Q48.15 9.28 48.08 9.33L48.08 9.33L48.08 9.33Q48.01 9.38 47.68 9.38L47.68 9.38L43.18 9.38L43.18 9.38Q43.12 9.51 43.12 9.84L43.12 9.84L43.12 9.84Q43.12 11.21 43.72 12.01L43.72 12.01L43.72 12.01Q44.31 12.81 45.33 12.81L45.33 12.81L45.33 12.81Q45.92 12.81 46.50 12.54L46.50 12.54L46.50 12.54Q47.08 12.28 47.63 11.79L47.63 11.79ZM43.27 8.60L45.30 8.60L45.30 8.60Q45.86 8.60 46.02 8.53L46.02 8.53L46.02 8.53Q46.19 8.47 46.19 8.23L46.19 8.23L46.19 8.23Q46.19 7.62 45.84 7.22L45.84 7.22L45.84 7.22Q45.49 6.83 44.95 6.83L44.95 6.83L44.95 6.83Q44.35 6.83 43.88 7.33L43.88 7.33L43.88 7.33Q43.41 7.83 43.27 8.60L43.27 8.60ZM55.68 11.89L56.04 12.42L56.04 12.42Q55.51 13.01 54.72 13.33L54.72 13.33L54.72 13.33Q53.93 13.65 53.00 13.65L53.00 13.65L53.00 13.65Q52.15 13.65 51.45 13.38L51.45 13.38L51.45 13.38Q50.75 13.10 50.25 12.61L50.25 12.61L50.25 12.61Q49.74 12.12 49.47 11.43L49.47 11.43L49.47 11.43Q49.20 10.74 49.20 9.90L49.20 9.90L49.20 9.90Q49.20 9.03 49.49 8.32L49.49 8.32L49.49 8.32Q49.78 7.60 50.32 7.09L50.32 7.09L50.32 7.09Q50.85 6.58 51.59 6.30L51.59 6.30L51.59 6.30Q52.33 6.02 53.23 6.02L53.23 6.02L53.23 6.02Q53.86 6.02 54.40 6.15L54.40 6.15L54.40 6.15Q54.94 6.27 55.32 6.50L55.32 6.50L55.32 6.50Q55.71 6.72 55.93 7.02L55.93 7.02L55.93 7.02Q56.15 7.32 56.15 7.67L56.15 7.67L56.15 7.67Q56.15 8.08 55.92 8.32L55.92 8.32L55.92 8.32Q55.69 8.55 55.30 8.55L55.30 8.55L55.30 8.55Q54.98 8.55 54.73 8.39L54.73 8.39L54.73 8.39Q54.49 8.22 54.25 7.84L54.25 7.84L54.25 7.84Q54.04 7.50 53.89 7.31L53.89 7.31L53.89 7.31Q53.75 7.11 53.62 7.01L53.62 7.01L53.62 7.01Q53.49 6.90 53.37 6.87L53.37 6.87L53.37 6.87Q53.24 6.83 53.06 6.83L53.06 6.83L53.06 6.83Q52.25 6.83 51.80 7.59L51.80 7.59L51.80 7.59Q51.35 8.34 51.35 9.70L51.35 9.70L51.35 9.70Q51.35 11.16 51.89 11.94L51.89 11.94L51.89 11.94Q52.43 12.73 53.44 12.73L53.44 12.73L53.44 12.73Q54.01 12.73 54.59 12.51L54.59 12.51L54.59 12.51Q55.16 12.29 55.68 11.89L55.68 11.89ZM59.96 9.42L59.96 11.28L59.96 11.28Q59.96 11.86 60.00 12.19L60.00 12.19L60.00 12.19Q60.03 12.52 60.15 12.70L60.15 12.70L60.15 12.70Q60.27 12.88 60.52 12.94L60.52 12.94L60.52 12.94Q60.76 12.99 61.18 13.02L61.18 13.02L61.18 13.58L56.77 13.58L56.77 13.02L56.77 13.02Q57.19 12.99 57.44 12.94L57.44 12.94L57.44 12.94Q57.69 12.88 57.82 12.71L57.82 12.71L57.82 12.71Q57.95 12.54 57.98 12.23L57.98 12.23L57.98 12.23Q58.02 11.91 58.02 11.38L58.02 11.38L58.02 5.63L58.02 5.63Q58.02 4.79 57.99 4.30L57.99 4.30L57.99 4.30Q57.97 3.82 57.92 3.57L57.92 3.57L57.92 3.57Q57.88 3.39 57.82 3.28L57.82 3.28L57.82 3.28Q57.76 3.18 57.64 3.12L57.64 3.12L57.64 3.12Q57.53 3.05 57.32 3.03L57.32 3.03L57.32 3.03Q57.12 3.01 56.81 3.01L56.81 3.01L56.81 2.49L59.93 1.96L59.93 7.13L59.99 7.13L59.99 7.13Q60.42 6.55 60.96 6.29L60.96 6.29L60.96 6.29Q61.50 6.02 62.26 6.02L62.26 6.02L62.26 6.02Q63.63 6.02 64.39 6.86L64.39 6.86L64.39 6.86Q64.75 7.28 64.96 7.88L64.96 7.88L64.96 7.88Q65.17 8.47 65.17 9.11L65.17 9.11L65.17 11.28L65.17 11.28Q65.17 11.87 65.20 12.20L65.20 12.20L65.20 12.20Q65.23 12.53 65.34 12.71L65.34 12.71L65.34 12.71Q65.46 12.88 65.70 12.94L65.70 12.94L65.70 12.94Q65.94 12.99 66.36 13.02L66.36 13.02L66.36 13.58L61.98 13.58L61.98 13.02L61.98 13.02Q62.40 13.01 62.64 12.94L62.64 12.94L62.64 12.94Q62.89 12.88 63.02 12.71L63.02 12.71L63.02 12.71Q63.15 12.54 63.19 12.23L63.19 12.23L63.19 12.23Q63.22 11.91 63.22 11.38L63.22 11.38L63.22 9.66L63.22 9.66Q63.22 8.18 62.90 7.56L62.90 7.56L62.90 7.56Q62.58 6.94 61.80 6.94L61.80 6.94L61.80 6.94Q60.96 6.94 60.47 7.56L60.47 7.56L60.47 7.56Q60.23 7.88 60.09 8.36L60.09 8.36L60.09 8.36Q59.96 8.83 59.96 9.42L59.96 9.42Z"></path></g><!----><g data-v-d3f97b9e="" id="156ad3a5-8f31-49be-b143-a1a19a0a5ac1" transform="matrix(1.0765547488314526,0,0,1.0765547488314526,297.0659985679396,-231.47458700803105)" stroke="none" fill="#19CEDA"><switch><g><path d="M-155 298.8c11.2 0 21.7-4.3 29.6-12.2 7.9-7.9 12.2-18.4 12.2-29.6 0-11.2-4.3-21.7-12.2-29.6-7.9-7.9-18.4-12.2-29.6-12.2s-21.7 4.3-29.6 12.2c-7.9 7.9-12.2 18.4-12.2 29.6 0 11.2 4.3 21.7 12.2 29.6 7.9 7.9 18.4 12.2 29.6 12.2zm2.4-7.1c-.8.1-1.6.1-2.4.1-1.1 0-2.2-.1-3.3-.2-3.6-5.6-6.3-11.6-7.9-17.9h17.7c.6 1.5 1.7 2.9 3 3.8-1.7 5-4.1 9.7-7.1 14.2zm9.5-2c1.9-3.5 3.4-7 4.6-10.7 2.9-.6 5.2-2.6 6.3-5.3h7.7c-4 7.3-10.7 13-18.6 16zm22.8-32.7c0 3.3-.5 6.5-1.3 9.6h-10.8c-.6-1.3-1.6-2.5-2.8-3.4.2-2.2.3-4.4.3-6.6 0-3.1-.2-6.2-.6-9.2h13.8c1 3 1.4 6.3 1.4 9.6zm-4.2-16.7h-12.2c-1.3-5.5-3.2-10.7-5.8-15.7 7.6 2.9 14 8.6 18 15.7zm-17.4 16.3c0 1.7-.1 3.4-.2 5.1-2.8.6-5.1 2.4-6.2 4.9h-19.3c-.4-3-.7-6.1-.7-9.1 0-1.9.1-3.8.3-5.7 2.6-.5 4.7-2.2 6-4.4h19.5c.4 3 .6 6.1.6 9.2zm-15.7-34.2c.9-.1 1.8-.1 2.6-.1 1 0 2 0 3 .1 3.6 5.6 6.3 11.6 7.9 17.9h-17.4c-.6-1.7-1.7-3.2-3.1-4.3 1.8-4.8 4.1-9.3 7-13.6zm-9.5 2c-1.7 3.2-3.2 6.6-4.4 10-3.1.6-5.6 2.9-6.6 5.8h-7.3c3.9-7.1 10.4-12.8 18.3-15.8zm-22.6 32.6c0-3.3.5-6.6 1.4-9.6h10.9c.6 1.1 1.5 2.1 2.5 2.9-.2 2.4-.4 4.8-.4 7.2 0 3.1.2 6.1.6 9.1h-13.6c-1-3.1-1.4-6.3-1.4-9.6zm16.2 16.6c1.3 5.4 3.2 10.7 5.8 15.7-7.6-3-13.9-8.6-17.8-15.7h12z"></path></g></switch></g><!----><g data-v-d3f97b9e="" id="165354c5-2542-494c-9bce-0732a2ead70c" fill="#19CEDA" transform="matrix(0.3653885911891185,0,0,0.3653885911891185,34.339217133994495,206.05418809112078)"><path d="M7.20 9.21L7.20 9.21L7.20 9.21Q7.66 9.21 7.92 9.46L7.92 9.46L7.92 9.46Q8.18 9.72 8.18 10.16L8.18 10.16L8.18 10.16Q8.18 10.28 8.15 10.39L8.15 10.39L8.15 10.39Q8.13 10.51 8.11 10.60L8.11 10.60L8.11 10.60Q7.92 10.57 7.70 10.55L7.70 10.55L7.70 10.55Q7.48 10.53 7.17 10.53L7.17 10.53L7.17 10.53Q6.57 10.53 5.95 10.63L5.95 10.63L5.95 10.63Q5.33 10.74 4.77 10.81L4.77 10.81L4.77 10.81Q4.45 11.55 4.19 12.24L4.19 12.24L4.19 12.24Q3.92 12.94 3.73 13.51L3.73 13.51L3.73 13.51Q3.54 14.08 3.44 14.50L3.44 14.50L3.44 14.50Q3.33 14.92 3.32 15.13L3.32 15.13L3.32 15.13Q4.45 14.90 5.61 14.73L5.61 14.73L5.61 14.73Q6.76 14.56 8.04 14.48L8.04 14.48L8.04 14.48Q8.19 14.71 8.29 14.99L8.29 14.99L8.29 14.99Q8.40 15.27 8.40 15.60L8.40 15.60L8.40 15.60Q8.40 15.68 8.40 15.78L8.40 15.78L8.40 15.78Q8.40 15.88 8.37 15.97L8.37 15.97L8.37 15.97Q7.98 15.96 7.55 15.95L7.55 15.95L7.55 15.95Q7.11 15.95 6.41 15.95L6.41 15.95L6.41 15.95Q5.95 15.95 5.54 15.97L5.54 15.97L5.54 15.97Q5.12 15.99 4.70 16.03L4.70 16.03L4.70 16.03Q4.28 16.07 3.81 16.14L3.81 16.14L3.81 16.14Q3.35 16.21 2.76 16.31L2.76 16.31L2.76 16.31Q2.11 16.06 1.51 15.08L1.51 15.08L1.51 15.08Q1.75 14.57 2.18 13.54L2.18 13.54L2.18 13.54Q2.60 12.52 3.26 10.79L3.26 10.79L3.26 10.79Q2.63 10.60 2.44 10.09L2.44 10.09L2.44 10.09Q2.51 10.02 2.84 9.92L2.84 9.92L2.84 9.92Q3.18 9.81 3.67 9.70L3.67 9.70L3.67 9.70Q3.88 9.16 4.03 8.75L4.03 8.75L4.03 8.75Q4.17 8.34 4.28 7.99L4.28 7.99L4.28 7.99Q4.40 7.63 4.49 7.29L4.49 7.29L4.49 7.29Q4.58 6.94 4.66 6.54L4.66 6.54L4.66 6.54Q4.17 6.51 3.89 6.27L3.89 6.27L3.89 6.27Q3.61 6.02 3.61 5.63L3.61 5.63L3.61 5.63Q3.61 5.52 3.65 5.36L3.65 5.36L3.65 5.36Q3.68 5.21 3.72 5.10L3.72 5.10L3.72 5.10Q4.00 5.14 4.26 5.15L4.26 5.15L4.26 5.15Q4.52 5.17 4.94 5.17L4.94 5.17L4.94 5.17Q5.82 5.17 6.59 5.12L6.59 5.12L6.59 5.12Q7.36 5.07 7.99 5.01L7.99 5.01L7.99 5.01Q8.61 4.96 9.06 4.91L9.06 4.91L9.06 4.91Q9.51 4.86 9.74 4.86L9.74 4.86L9.74 4.86Q10.07 4.86 10.32 5.19L10.32 5.19L10.32 5.19Q10.57 5.53 10.70 6.15L10.70 6.15L10.70 6.15Q10.26 6.10 9.99 6.09L9.99 6.09L9.99 6.09Q9.72 6.08 9.51 6.08L9.51 6.08L9.51 6.08Q8.74 6.08 8.10 6.15L8.10 6.15L8.10 6.15Q7.46 6.23 6.87 6.31L6.87 6.31L6.87 6.31Q6.79 6.44 6.69 6.64L6.69 6.64L6.69 6.64Q6.58 6.83 6.41 7.18L6.41 7.18L6.41 7.18Q6.24 7.53 6.00 8.06L6.00 8.06L6.00 8.06Q5.75 8.60 5.40 9.39L5.40 9.39L5.40 9.39Q5.94 9.31 6.41 9.26L6.41 9.26L6.41 9.26Q6.87 9.21 7.20 9.21ZM21.39 16.07L21.39 16.07L21.39 16.07Q21.07 16.24 20.71 16.24L20.71 16.24L20.71 16.24Q20.26 16.18 19.84 16.02L19.84 16.02L19.84 16.02Q19.43 15.85 19.24 15.61L19.24 15.61L19.24 15.61Q19.12 14.92 19.05 14.35L19.05 14.35L19.05 14.35Q18.98 13.78 18.94 13.27L18.94 13.27L18.94 13.27Q18.90 12.75 18.89 12.29L18.89 12.29L18.89 12.29Q18.87 11.82 18.87 11.34L18.87 11.34L18.87 11.34Q18.87 10.71 18.89 10.01L18.89 10.01L18.89 10.01Q18.90 9.31 18.92 8.52L18.92 8.52L18.92 8.52Q18.94 7.73 18.96 6.82L18.96 6.82L18.96 6.82Q18.97 5.92 18.97 4.86L18.97 4.86L18.97 4.86Q19.15 4.86 19.52 4.96L19.52 4.96L19.52 4.96Q19.88 5.07 20.24 5.21L20.24 5.21L20.24 5.21Q20.59 5.35 20.87 5.49L20.87 5.49L20.87 5.49Q21.15 5.64 21.18 5.74L21.18 5.74L21.18 5.74Q21.04 6.13 20.94 6.76L20.94 6.76L20.94 6.76Q20.83 7.39 20.77 8.16L20.77 8.16L20.77 8.16Q20.71 8.93 20.68 9.79L20.68 9.79L20.68 9.79Q20.65 10.64 20.65 11.48L20.65 11.48L20.65 11.48Q20.65 12.11 20.66 12.61L20.66 12.61L20.66 12.61Q20.68 13.10 20.70 13.50L20.70 13.50L20.70 13.50Q20.72 13.90 20.76 14.25L20.76 14.25L20.76 14.25Q20.80 14.59 20.86 14.92L20.86 14.92L20.86 14.92Q21.25 13.73 21.72 12.54L21.72 12.54L21.72 12.54Q22.19 11.35 22.69 10.25L22.69 10.25L22.69 10.25Q23.18 9.16 23.67 8.20L23.67 8.20L23.67 8.20Q24.16 7.25 24.61 6.54L24.61 6.54L24.61 6.54Q25.05 5.84 25.40 5.43L25.40 5.43L25.40 5.43Q25.75 5.01 25.97 4.98L25.97 4.98L25.97 4.98Q26.12 5.01 26.30 5.10L26.30 5.10L26.30 5.10Q26.47 5.19 26.63 5.32L26.63 5.32L26.63 5.32Q26.78 5.45 26.91 5.60L26.91 5.60L26.91 5.60Q27.03 5.75 27.10 5.91L27.10 5.91L27.10 5.91Q26.59 6.09 25.99 6.76L25.99 6.76L25.99 6.76Q25.40 7.43 24.79 8.38L24.79 8.38L24.79 8.38Q24.19 9.32 23.63 10.44L23.63 10.44L23.63 10.44Q23.06 11.55 22.60 12.61L22.60 12.61L22.60 12.61Q22.15 13.68 21.83 14.60L21.83 14.60L21.83 14.60Q21.50 15.53 21.39 16.07ZM38.36 9.21L38.36 9.21L38.36 9.21Q38.82 9.21 39.08 9.46L39.08 9.46L39.08 9.46Q39.34 9.72 39.34 10.16L39.34 10.16L39.34 10.16Q39.34 10.28 39.32 10.39L39.32 10.39L39.32 10.39Q39.30 10.51 39.27 10.60L39.27 10.60L39.27 10.60Q39.09 10.57 38.86 10.55L38.86 10.55L38.86 10.55Q38.64 10.53 38.33 10.53L38.33 10.53L38.33 10.53Q37.73 10.53 37.11 10.63L37.11 10.63L37.11 10.63Q36.50 10.74 35.94 10.81L35.94 10.81L35.94 10.81Q35.62 11.55 35.35 12.24L35.35 12.24L35.35 12.24Q35.08 12.94 34.90 13.51L34.90 13.51L34.90 13.51Q34.71 14.08 34.60 14.50L34.60 14.50L34.60 14.50Q34.50 14.92 34.48 15.13L34.48 15.13L34.48 15.13Q35.62 14.90 36.77 14.73L36.77 14.73L36.77 14.73Q37.93 14.56 39.20 14.48L39.20 14.48L39.20 14.48Q39.35 14.71 39.46 14.99L39.46 14.99L39.46 14.99Q39.56 15.27 39.56 15.60L39.56 15.60L39.56 15.60Q39.56 15.68 39.56 15.78L39.56 15.78L39.56 15.78Q39.56 15.88 39.54 15.97L39.54 15.97L39.54 15.97Q39.14 15.96 38.71 15.95L38.71 15.95L38.71 15.95Q38.28 15.95 37.58 15.95L37.58 15.95L37.58 15.95Q37.11 15.95 36.70 15.97L36.70 15.97L36.70 15.97Q36.29 15.99 35.87 16.03L35.87 16.03L35.87 16.03Q35.45 16.07 34.98 16.14L34.98 16.14L34.98 16.14Q34.51 16.21 33.92 16.31L33.92 16.31L33.92 16.31Q33.28 16.06 32.68 15.08L32.68 15.08L32.68 15.08Q32.91 14.57 33.34 13.54L33.34 13.54L33.34 13.54Q33.77 12.52 34.43 10.79L34.43 10.79L34.43 10.79Q33.80 10.60 33.60 10.09L33.60 10.09L33.60 10.09Q33.67 10.02 34.01 9.92L34.01 9.92L34.01 9.92Q34.34 9.81 34.83 9.70L34.83 9.70L34.83 9.70Q35.04 9.16 35.19 8.75L35.19 8.75L35.19 8.75Q35.34 8.34 35.45 7.99L35.45 7.99L35.45 7.99Q35.56 7.63 35.65 7.29L35.65 7.29L35.65 7.29Q35.74 6.94 35.83 6.54L35.83 6.54L35.83 6.54Q35.34 6.51 35.06 6.27L35.06 6.27L35.06 6.27Q34.78 6.02 34.78 5.63L34.78 5.63L34.78 5.63Q34.78 5.52 34.81 5.36L34.81 5.36L34.81 5.36Q34.85 5.21 34.89 5.10L34.89 5.10L34.89 5.10Q35.17 5.14 35.43 5.15L35.43 5.15L35.43 5.15Q35.69 5.17 36.11 5.17L36.11 5.17L36.11 5.17Q36.99 5.17 37.76 5.12L37.76 5.12L37.76 5.12Q38.53 5.07 39.15 5.01L39.15 5.01L39.15 5.01Q39.77 4.96 40.22 4.91L40.22 4.91L40.22 4.91Q40.67 4.86 40.91 4.86L40.91 4.86L40.91 4.86Q41.23 4.86 41.48 5.19L41.48 5.19L41.48 5.19Q41.73 5.53 41.86 6.15L41.86 6.15L41.86 6.15Q41.43 6.10 41.15 6.09L41.15 6.09L41.15 6.09Q40.88 6.08 40.67 6.08L40.67 6.08L40.67 6.08Q39.90 6.08 39.26 6.15L39.26 6.15L39.26 6.15Q38.63 6.23 38.04 6.31L38.04 6.31L38.04 6.31Q37.95 6.44 37.85 6.64L37.85 6.64L37.85 6.64Q37.74 6.83 37.58 7.18L37.58 7.18L37.58 7.18Q37.41 7.53 37.16 8.06L37.16 8.06L37.16 8.06Q36.92 8.60 36.57 9.39L36.57 9.39L36.57 9.39Q37.10 9.31 37.57 9.26L37.57 9.26L37.57 9.26Q38.04 9.21 38.36 9.21ZM57.62 7.46L57.62 7.46L57.62 7.46Q57.62 8.13 57.32 8.73L57.32 8.73L57.32 8.73Q57.02 9.32 56.49 9.79L56.49 9.79L56.49 9.79Q55.96 10.26 55.24 10.58L55.24 10.58L55.24 10.58Q54.53 10.91 53.69 11.02L53.69 11.02L53.69 11.02Q53.90 11.65 54.20 12.31L54.20 12.31L54.20 12.31Q54.50 12.98 54.85 13.59L54.85 13.59L54.85 13.59Q55.20 14.21 55.58 14.73L55.58 14.73L55.58 14.73Q55.96 15.25 56.32 15.58L56.32 15.58L56.32 15.58Q56.25 15.72 56.12 15.86L56.12 15.86L56.12 15.86Q55.99 16.00 55.81 16.12L55.81 16.12L55.81 16.12Q55.64 16.24 55.45 16.32L55.45 16.32L55.45 16.32Q55.26 16.39 55.09 16.39L55.09 16.39L55.09 16.39Q54.78 16.39 54.50 16.10L54.50 16.10L54.50 16.10Q54.22 15.81 53.93 15.17L53.93 15.17L53.93 15.17Q53.65 14.53 53.33 13.52L53.33 13.52L53.33 13.52Q53.02 12.50 52.64 11.07L52.64 11.07L52.64 11.07Q52.49 11.07 52.33 11.07L52.33 11.07L52.33 11.07Q52.18 11.07 52.09 11.05L52.09 11.05L52.09 11.05Q52.00 10.99 51.88 10.85L51.88 10.85L51.88 10.85Q51.51 11.66 51.21 12.38L51.21 12.38L51.21 12.38Q50.92 13.09 50.69 13.76L50.69 13.76L50.69 13.76Q50.46 14.42 50.28 15.04L50.28 15.04L50.28 15.04Q50.11 15.67 49.98 16.31L49.98 16.31L49.98 16.31Q49.50 16.20 49.15 15.90L49.15 15.90L49.15 15.90Q48.80 15.61 48.50 15.08L48.50 15.08L48.50 15.08Q48.55 14.95 48.61 14.83L48.61 14.83L48.61 14.83Q48.68 14.71 48.78 14.50L48.78 14.50L48.78 14.50Q48.87 14.28 49.02 13.94L49.02 13.94L49.02 13.94Q49.17 13.61 49.41 13.05L49.41 13.05L49.41 13.05Q49.66 12.49 50.00 11.68L50.00 11.68L50.00 11.68Q50.34 10.86 50.83 9.70L50.83 9.70L50.83 9.70Q51.06 9.18 51.22 8.79L51.22 8.79L51.22 8.79Q51.38 8.40 51.51 8.04L51.51 8.04L51.51 8.04Q51.63 7.69 51.74 7.33L51.74 7.33L51.74 7.33Q51.84 6.97 51.95 6.51L51.95 6.51L51.95 6.51Q51.31 6.73 50.76 7.01L50.76 7.01L50.76 7.01Q50.20 7.28 49.84 7.59L49.84 7.59L49.84 7.59Q49.71 7.50 49.58 7.34L49.58 7.34L49.58 7.34Q49.45 7.17 49.34 6.96L49.34 6.96L49.34 6.96Q49.22 6.76 49.14 6.55L49.14 6.55L49.14 6.55Q49.06 6.34 49.04 6.17L49.04 6.17L49.04 6.17Q49.46 5.89 50.07 5.66L50.07 5.66L50.07 5.66Q50.68 5.42 51.37 5.24L51.37 5.24L51.37 5.24Q52.05 5.07 52.77 4.97L52.77 4.97L52.77 4.97Q53.48 4.87 54.10 4.87L54.10 4.87L54.10 4.87Q55.78 4.87 56.70 5.56L56.70 5.56L56.70 5.56Q57.62 6.26 57.62 7.46ZM54.04 6.02L54.21 6.29L54.21 6.29Q54.11 6.41 53.90 6.79L53.90 6.79L53.90 6.79Q53.69 7.17 53.42 7.69L53.42 7.69L53.42 7.69Q53.14 8.22 52.84 8.83L52.84 8.83L52.84 8.83Q52.54 9.45 52.26 10.05L52.26 10.05L52.26 10.05Q53.31 10.05 54.19 9.86L54.19 9.86L54.19 9.86Q55.08 9.66 55.72 9.30L55.72 9.30L55.72 9.30Q56.36 8.95 56.72 8.46L56.72 8.46L56.72 8.46Q57.08 7.98 57.08 7.39L57.08 7.39L57.08 7.39Q57.08 6.69 56.57 6.32L56.57 6.32L56.57 6.32Q56.07 5.95 55.02 5.95L55.02 5.95L55.02 5.95Q54.78 5.95 54.54 5.97L54.54 5.97L54.54 5.97Q54.31 5.99 54.04 6.02L54.04 6.02ZM69.20 10.35L69.20 10.35L69.20 10.35Q70.25 9.20 71.09 7.91L71.09 7.91L71.09 7.91Q71.92 6.62 72.63 5.01L72.63 5.01L72.63 5.01Q73.00 5.05 73.33 5.21L73.33 5.21L73.33 5.21Q73.67 5.36 73.86 5.56L73.86 5.56L73.86 5.56Q73.09 6.48 72.47 7.24L72.47 7.24L72.47 7.24Q71.85 7.99 71.33 8.66L71.33 8.66L71.33 8.66Q70.81 9.32 70.37 9.93L70.37 9.93L70.37 9.93Q69.93 10.54 69.51 11.16L69.51 11.16L69.51 11.16Q69.30 11.87 69.12 12.60L69.12 12.60L69.12 12.60Q68.94 13.33 68.80 13.99L68.80 13.99L68.80 13.99Q68.66 14.66 68.58 15.22L68.58 15.22L68.58 15.22Q68.50 15.79 68.50 16.20L68.50 16.20L68.50 16.20Q68.35 16.20 68.01 16.14L68.01 16.14L68.01 16.14Q67.68 16.07 67.33 15.99L67.33 15.99L67.33 15.99Q66.98 15.90 66.69 15.82L66.69 15.82L66.69 15.82Q66.40 15.74 66.35 15.68L66.35 15.68L66.35 15.68Q66.57 15.30 66.79 14.75L66.79 14.75L66.79 14.75Q67.00 14.20 67.21 13.59L67.21 13.59L67.21 13.59Q67.42 12.98 67.62 12.36L67.62 12.36L67.62 12.36Q67.82 11.73 67.98 11.20L67.98 11.20L67.98 11.20Q67.63 10.11 67.31 9.15L67.31 9.15L67.31 9.15Q66.98 8.19 66.67 7.41L66.67 7.41L66.67 7.41Q66.36 6.64 66.08 6.08L66.08 6.08L66.08 6.08Q65.80 5.52 65.55 5.22L65.55 5.22L65.55 5.22Q65.69 5.17 65.97 5.11L65.97 5.11L65.97 5.11Q66.26 5.05 66.61 5.00L66.61 5.00L66.61 5.00Q66.95 4.94 67.31 4.91L67.31 4.91L67.31 4.91Q67.66 4.87 67.94 4.86L67.94 4.86L67.94 4.86Q67.94 5.21 68.00 5.71L68.00 5.71L68.00 5.71Q68.07 6.22 68.17 6.79L68.17 6.79L68.17 6.79Q68.28 7.36 68.42 7.95L68.42 7.95L68.42 7.95Q68.56 8.54 68.70 9.03L68.70 9.03L68.70 9.03Q68.84 9.52 68.97 9.88L68.97 9.88L68.97 9.88Q69.10 10.23 69.20 10.35ZM82.39 6.69L82.39 6.69L82.39 6.69Q81.83 6.69 81.53 6.38L81.53 6.38L81.53 6.38Q81.23 6.06 81.23 5.61L81.23 5.61L81.23 5.61Q81.23 5.50 81.26 5.35L81.26 5.35L81.26 5.35Q81.30 5.19 81.35 5.08L81.35 5.08L81.35 5.08Q81.54 5.17 81.89 5.20L81.89 5.20L81.89 5.20Q82.25 5.24 82.73 5.24L82.73 5.24L82.73 5.24Q83.44 5.24 84.34 5.17L84.34 5.17L84.34 5.17Q85.25 5.11 86.07 5.04L86.07 5.04L86.07 5.04Q86.90 4.97 87.53 4.91L87.53 4.91L87.53 4.91Q88.16 4.84 88.34 4.84L88.34 4.84L88.34 4.84Q88.86 4.84 89.09 5.23L89.09 5.23L89.09 5.23Q89.32 5.61 89.43 6.26L89.43 6.26L89.43 6.26Q89.07 6.23 88.71 6.21L88.71 6.21L88.71 6.21Q88.35 6.19 88.10 6.19L88.10 6.19L88.10 6.19Q87.65 6.19 87.20 6.22L87.20 6.22L87.20 6.22Q86.74 6.24 86.28 6.30L86.28 6.30L86.28 6.30Q86.09 6.71 85.85 7.26L85.85 7.26L85.85 7.26Q85.61 7.81 85.38 8.41L85.38 8.41L85.38 8.41Q85.15 9.02 84.94 9.61L84.94 9.61L84.94 9.61Q84.73 10.21 84.57 10.68L84.57 10.68L84.57 10.68Q84.27 11.61 84.04 12.39L84.04 12.39L84.04 12.39Q83.80 13.17 83.63 13.85L83.63 13.85L83.63 13.85Q83.45 14.53 83.33 15.15L83.33 15.15L83.33 15.15Q83.20 15.76 83.10 16.35L83.10 16.35L83.10 16.35Q82.17 16.21 81.54 15.18L81.54 15.18L81.54 15.18Q81.65 14.74 81.81 14.23L81.81 14.23L81.81 14.23Q81.97 13.72 82.19 13.07L82.19 13.07L82.19 13.07Q82.40 12.42 82.70 11.59L82.70 11.59L82.70 11.59Q82.99 10.77 83.37 9.72L83.37 9.72L83.37 9.72Q83.51 9.32 83.66 8.90L83.66 8.90L83.66 8.90Q83.82 8.47 83.97 8.05L83.97 8.05L83.97 8.05Q84.11 7.63 84.23 7.24L84.23 7.24L84.23 7.24Q84.35 6.85 84.43 6.52L84.43 6.52L84.43 6.52Q83.85 6.59 83.32 6.64L83.32 6.64L83.32 6.64Q82.80 6.69 82.39 6.69ZM100.31 14.36L100.31 14.36L100.31 14.36Q100.31 13.78 100.51 12.85L100.51 12.85L100.51 12.85Q100.70 11.93 101.02 10.88L101.02 10.88L101.02 10.88Q100.10 10.95 99.17 11.06L99.17 11.06L99.17 11.06Q98.24 11.17 97.55 11.19L97.55 11.19L97.55 11.19Q96.92 12.66 96.55 13.89L96.55 13.89L96.55 13.89Q96.18 15.13 95.97 16.31L95.97 16.31L95.97 16.31Q95.44 16.18 95.09 15.87L95.09 15.87L95.09 15.87Q94.74 15.55 94.44 15.08L94.44 15.08L94.44 15.08Q94.56 14.85 94.70 14.50L94.70 14.50L94.70 14.50Q94.85 14.15 95.05 13.66L95.05 13.66L95.05 13.66Q95.26 13.16 95.52 12.50L95.52 12.50L95.52 12.50Q95.77 11.83 96.11 10.95L96.11 10.95L96.11 10.95Q95.65 10.75 95.49 10.40L95.49 10.40L95.49 10.40Q95.56 10.35 95.81 10.28L95.81 10.28L95.81 10.28Q96.05 10.22 96.42 10.15L96.42 10.15L96.60 9.70L96.60 9.70Q96.89 8.95 97.08 8.43L97.08 8.43L97.08 8.43Q97.27 7.91 97.41 7.41L97.41 7.41L97.41 7.41Q97.54 6.92 97.66 6.31L97.66 6.31L97.66 6.31Q97.78 5.71 97.94 4.79L97.94 4.79L97.94 4.79Q98.53 4.90 99.02 5.31L99.02 5.31L99.02 5.31Q99.50 5.71 99.85 6.29L99.85 6.29L99.85 6.29Q99.72 6.45 99.54 6.79L99.54 6.79L99.54 6.79Q99.36 7.13 99.14 7.59L99.14 7.59L99.14 7.59Q98.92 8.06 98.67 8.64L98.67 8.64L98.67 8.64Q98.42 9.23 98.13 9.87L98.13 9.87L98.13 9.87Q98.99 9.76 99.88 9.66L99.88 9.66L99.88 9.66Q100.77 9.56 101.46 9.52L101.46 9.52L101.46 9.52Q101.71 8.79 101.98 8.10L101.98 8.10L101.98 8.10Q102.26 7.41 102.52 6.83L102.52 6.83L102.52 6.83Q102.79 6.26 103.03 5.82L103.03 5.82L103.03 5.82Q103.28 5.39 103.47 5.18L103.47 5.18L103.47 5.18Q103.61 5.19 103.85 5.29L103.85 5.29L103.85 5.29Q104.08 5.38 104.31 5.50L104.31 5.50L104.31 5.50Q104.55 5.63 104.75 5.78L104.75 5.78L104.75 5.78Q104.94 5.92 105.01 6.05L105.01 6.05L105.01 6.05Q104.76 6.29 104.51 6.66L104.51 6.66L104.51 6.66Q104.26 7.04 104.01 7.53L104.01 7.53L104.01 7.53Q103.77 8.02 103.53 8.60L103.53 8.60L103.53 8.60Q103.29 9.17 103.08 9.79L103.08 9.79L103.08 9.79Q103.36 10.04 103.36 10.42L103.36 10.42L103.36 10.42Q103.36 10.68 103.25 10.91L103.25 10.91L103.25 10.91Q103.12 10.88 103.00 10.87L103.00 10.87L103.00 10.87Q102.87 10.86 102.73 10.85L102.73 10.85L102.73 10.85Q102.49 11.61 102.30 12.35L102.30 12.35L102.30 12.35Q102.10 13.09 101.97 13.76L101.97 13.76L101.97 13.76Q101.84 14.43 101.76 14.99L101.76 14.99L101.76 14.99Q101.68 15.55 101.68 15.93L101.68 15.93L101.68 15.93Q101.68 16.07 101.69 16.16L101.69 16.16L101.69 16.16Q101.70 16.24 101.71 16.30L101.71 16.30L101.71 16.30Q101.40 16.28 101.26 16.19L101.26 16.19L101.26 16.19Q101.12 16.10 101.05 16.00L101.05 16.00L101.05 16.00Q100.98 15.89 100.93 15.79L100.93 15.79L100.93 15.79Q100.87 15.68 100.74 15.62L100.74 15.62L100.74 15.62Q100.65 15.58 100.56 15.43L100.56 15.43L100.56 15.43Q100.48 15.27 100.42 15.08L100.42 15.08L100.42 15.08Q100.37 14.88 100.34 14.69L100.34 14.69L100.34 14.69Q100.31 14.49 100.31 14.36ZM111.72 14.38L111.72 14.38L111.72 14.38Q111.72 13.87 111.88 13.07L111.88 13.07L111.88 13.07Q112.04 12.26 112.30 11.33L112.30 11.33L112.30 11.33Q112.56 10.40 112.90 9.43L112.90 9.43L112.90 9.43Q113.23 8.46 113.58 7.60L113.58 7.60L113.58 7.60Q113.93 6.75 114.27 6.10L114.27 6.10L114.27 6.10Q114.60 5.46 114.87 5.18L114.87 5.18L114.87 5.18Q115.01 5.19 115.24 5.29L115.24 5.29L115.24 5.29Q115.47 5.38 115.71 5.50L115.71 5.50L115.71 5.50Q115.95 5.63 116.14 5.78L116.14 5.78L116.14 5.78Q116.34 5.92 116.40 6.05L116.40 6.05L116.40 6.05Q115.99 6.41 115.59 7.15L115.59 7.15L115.59 7.15Q115.19 7.88 114.82 8.82L114.82 8.82L114.82 8.82Q114.45 9.76 114.13 10.80L114.13 10.80L114.13 10.80Q113.81 11.84 113.57 12.82L113.57 12.82L113.57 12.82Q113.33 13.80 113.20 14.64L113.20 14.64L113.20 14.64Q113.06 15.48 113.06 16.00L113.06 16.00L113.06 16.00Q113.06 16.24 113.11 16.30L113.11 16.30L113.11 16.30Q112.80 16.28 112.66 16.19L112.66 16.19L112.66 16.19Q112.52 16.10 112.44 16.00L112.44 16.00L112.44 16.00Q112.36 15.89 112.30 15.79L112.30 15.79L112.30 15.79Q112.24 15.68 112.11 15.62L112.11 15.62L112.11 15.62Q112.01 15.58 111.94 15.43L111.94 15.43L111.94 15.43Q111.87 15.27 111.83 15.09L111.83 15.09L111.83 15.09Q111.78 14.90 111.75 14.70L111.75 14.70L111.75 14.70Q111.72 14.50 111.72 14.38ZM123.96 16.24L123.96 16.24L123.96 16.24Q123.16 16.00 122.88 15.79L122.88 15.79L122.88 15.79Q122.60 15.57 122.60 15.19L122.60 15.19L122.60 15.19Q122.60 14.77 122.79 14.01L122.79 14.01L122.79 14.01Q122.99 13.24 123.31 12.31L123.31 12.31L123.31 12.31Q123.62 11.37 124.03 10.35L124.03 10.35L124.03 10.35Q124.43 9.32 124.85 8.39L124.85 8.39L124.85 8.39Q125.27 7.45 125.67 6.67L125.67 6.67L125.67 6.67Q126.07 5.89 126.38 5.46L126.38 5.46L126.28 4.87L126.28 4.87Q126.48 4.87 126.83 4.97L126.83 4.97L126.83 4.97Q127.18 5.07 127.53 5.21L127.53 5.21L127.53 5.21Q127.89 5.35 128.16 5.49L128.16 5.49L128.16 5.49Q128.44 5.64 128.46 5.74L128.46 5.74L128.46 5.74Q128.39 6.08 128.35 6.76L128.35 6.76L128.35 6.76Q128.31 7.43 128.31 8.20L128.31 8.20L128.31 8.20Q128.31 9.73 128.43 11.19L128.43 11.19L128.43 11.19Q128.55 12.66 128.98 14.17L128.98 14.17L128.98 14.17Q129.21 13.05 129.47 11.94L129.47 11.94L129.47 11.94Q129.72 10.82 130.00 9.81L130.00 9.81L130.00 9.81Q130.28 8.79 130.56 7.92L130.56 7.92L130.56 7.92Q130.84 7.06 131.10 6.40L131.10 6.40L131.10 6.40Q131.36 5.75 131.59 5.38L131.59 5.38L131.59 5.38Q131.81 5.01 131.99 4.98L131.99 4.98L131.99 4.98Q132.15 5.01 132.33 5.10L132.33 5.10L132.33 5.10Q132.51 5.19 132.68 5.32L132.68 5.32L132.68 5.32Q132.85 5.45 132.99 5.60L132.99 5.60L132.99 5.60Q133.13 5.75 133.21 5.91L133.21 5.91L133.21 5.91Q132.76 6.09 132.32 6.76L132.32 6.76L132.32 6.76Q131.88 7.43 131.48 8.39L131.48 8.39L131.48 8.39Q131.08 9.35 130.74 10.47L130.74 10.47L130.74 10.47Q130.40 11.59 130.14 12.68L130.14 12.68L130.14 12.68Q129.88 13.76 129.73 14.69L129.73 14.69L129.73 14.69Q129.58 15.61 129.57 16.17L129.57 16.17L129.57 16.17Q129.57 16.20 129.58 16.21L129.58 16.21L129.58 16.21Q129.54 16.23 129.49 16.23L129.49 16.23L129.49 16.23Q129.44 16.23 129.40 16.23L129.40 16.23L129.40 16.23Q128.76 16.23 128.26 16.07L128.26 16.07L128.26 16.07Q127.76 15.90 127.61 15.61L127.61 15.61L127.61 15.61Q127.32 14.43 127.12 13.34L127.12 13.34L127.12 13.34Q126.92 12.25 126.79 11.16L126.79 11.16L126.79 11.16Q126.66 10.07 126.58 8.95L126.58 8.95L126.58 8.95Q126.50 7.84 126.46 6.62L126.46 6.62L126.46 6.62Q126.20 7.04 125.90 7.72L125.90 7.72L125.90 7.72Q125.61 8.40 125.33 9.21L125.33 9.21L125.33 9.21Q125.05 10.02 124.79 10.92L124.79 10.92L124.79 10.92Q124.53 11.82 124.33 12.67L124.33 12.67L124.33 12.67Q124.14 13.52 124.03 14.29L124.03 14.29L124.03 14.29Q123.91 15.05 123.91 15.61L123.91 15.61L123.91 15.61Q123.91 15.90 123.92 16.03L123.92 16.03L123.92 16.03Q123.93 16.16 123.96 16.24ZM147.03 10.72L147.03 10.72L147.03 10.72Q147.39 10.72 147.60 10.98L147.60 10.98L147.60 10.98Q147.81 11.23 147.81 11.68L147.81 11.68L147.81 11.68Q147.81 11.79 147.80 11.91L147.80 11.91L147.80 11.91Q147.78 12.03 147.76 12.11L147.76 12.11L147.76 12.11Q147.46 12.04 147.11 12.03L147.11 12.03L147.11 12.03Q147.03 12.64 146.66 13.32L146.66 13.32L146.66 13.32Q146.30 14 145.78 14.60L145.78 14.60L145.78 14.60Q145.26 15.19 144.65 15.64L144.65 15.64L144.65 15.64Q144.03 16.09 143.43 16.24L143.43 16.24L143.43 16.24Q141.55 16.20 140.69 15.27L140.69 15.27L140.69 15.27Q139.83 14.34 139.83 12.36L139.83 12.36L139.83 12.36Q139.83 10.92 140.36 9.57L140.36 9.57L140.36 9.57Q140.90 8.22 141.78 7.17L141.78 7.17L141.78 7.17Q142.66 6.12 143.80 5.48L143.80 5.48L143.80 5.48Q144.94 4.84 146.17 4.84L146.17 4.84L146.17 4.84Q147.14 4.84 147.68 5.25L147.68 5.25L147.68 5.25Q148.22 5.66 148.22 6.40L148.22 6.40L148.22 6.40Q148.22 6.89 147.99 7.31L147.99 7.31L147.99 7.31Q147.76 7.73 147.22 8.22L147.22 8.22L147.22 8.22Q146.90 8.12 146.66 7.88L146.66 7.88L146.66 7.88Q146.43 7.63 146.37 7.31L146.37 7.31L146.37 7.31Q146.85 6.96 147.04 6.66L147.04 6.66L147.04 6.66Q147.24 6.37 147.24 5.96L147.24 5.96L147.24 5.96Q147.24 5.32 146.47 5.32L146.47 5.32L146.47 5.32Q145.84 5.32 145.12 5.79L145.12 5.79L145.12 5.79Q144.40 6.26 143.67 7.14L143.67 7.14L143.67 7.14Q142.63 8.39 142.16 9.71L142.16 9.71L142.16 9.71Q141.68 11.03 141.68 12.68L141.68 12.68L141.68 12.68Q141.68 13.30 141.81 13.80L141.81 13.80L141.81 13.80Q141.93 14.31 142.14 14.69L142.14 14.69L142.14 14.69Q142.35 15.06 142.64 15.29L142.64 15.29L142.64 15.29Q142.93 15.51 143.26 15.54L143.26 15.54L143.26 15.54Q143.71 15.44 144.16 15.09L144.16 15.09L144.16 15.09Q144.61 14.73 144.98 14.25L144.98 14.25L144.98 14.25Q145.35 13.76 145.61 13.21L145.61 13.21L145.61 13.21Q145.87 12.66 145.92 12.15L145.92 12.15L145.92 12.15Q145.53 12.24 145.17 12.31L145.17 12.31L145.17 12.31Q144.82 12.39 144.49 12.39L144.49 12.39L144.49 12.39Q144.07 12.39 143.76 12.18L143.76 12.18L143.76 12.18Q143.44 11.97 143.33 11.61L143.33 11.61L143.33 11.61Q143.58 11.47 144.07 11.31L144.07 11.31L144.07 11.31Q144.55 11.16 145.10 11.03L145.10 11.03L145.10 11.03Q145.64 10.89 146.17 10.81L146.17 10.81L146.17 10.81Q146.69 10.72 147.03 10.72ZM166.12 14.38L166.12 14.38L166.12 14.38Q166.12 13.87 166.28 13.07L166.28 13.07L166.28 13.07Q166.45 12.26 166.70 11.33L166.70 11.33L166.70 11.33Q166.96 10.40 167.30 9.43L167.30 9.43L167.30 9.43Q167.64 8.46 167.99 7.60L167.99 7.60L167.99 7.60Q168.34 6.75 168.67 6.10L168.67 6.10L168.67 6.10Q169.01 5.46 169.27 5.18L169.27 5.18L169.27 5.18Q169.41 5.19 169.64 5.29L169.64 5.29L169.64 5.29Q169.88 5.38 170.11 5.50L170.11 5.50L170.11 5.50Q170.35 5.63 170.55 5.78L170.55 5.78L170.55 5.78Q170.74 5.92 170.80 6.05L170.80 6.05L170.80 6.05Q170.39 6.41 170.00 7.15L170.00 7.15L170.00 7.15Q169.60 7.88 169.22 8.82L169.22 8.82L169.22 8.82Q168.85 9.76 168.53 10.80L168.53 10.80L168.53 10.80Q168.21 11.84 167.97 12.82L167.97 12.82L167.97 12.82Q167.73 13.80 167.60 14.64L167.60 14.64L167.60 14.64Q167.47 15.48 167.47 16.00L167.47 16.00L167.47 16.00Q167.47 16.24 167.51 16.30L167.51 16.30L167.51 16.30Q167.20 16.28 167.06 16.19L167.06 16.19L167.06 16.19Q166.92 16.10 166.84 16.00L166.84 16.00L166.84 16.00Q166.77 15.89 166.70 15.79L166.70 15.79L166.70 15.79Q166.64 15.68 166.52 15.62L166.52 15.62L166.52 15.62Q166.42 15.58 166.35 15.43L166.35 15.43L166.35 15.43Q166.28 15.27 166.23 15.09L166.23 15.09L166.23 15.09Q166.18 14.90 166.15 14.70L166.15 14.70L166.15 14.70Q166.12 14.50 166.12 14.38ZM186.24 5.74L186.24 5.74L186.24 5.74Q186.28 5.98 186.30 6.07L186.30 6.07L186.30 6.07Q186.33 6.16 186.33 6.31L186.33 6.31L186.33 6.31Q186.33 6.78 186.12 7.18L186.12 7.18L186.12 7.18Q185.92 7.57 185.57 7.74L185.57 7.74L185.57 7.74Q185.29 7.36 184.88 7.09L184.88 7.09L184.88 7.09Q184.48 6.82 183.99 6.64L183.99 6.64L183.99 6.64Q183.51 6.47 182.99 6.38L182.99 6.38L182.99 6.38Q182.48 6.30 181.99 6.30L181.99 6.30L181.99 6.30Q181.50 6.30 181.07 6.38L181.07 6.38L181.07 6.38Q180.64 6.45 180.31 6.59L180.31 6.59L180.31 6.59Q179.98 6.72 179.79 6.92L179.79 6.92L179.79 6.92Q179.61 7.11 179.61 7.36L179.61 7.36L179.61 7.36Q179.65 7.67 179.98 7.99L179.98 7.99L179.98 7.99Q180.32 8.30 180.81 8.60L180.81 8.60L180.81 8.60Q181.30 8.90 181.89 9.20L181.89 9.20L181.89 9.20Q182.49 9.49 183.06 9.76L183.06 9.76L183.06 9.76Q183.78 10.09 184.30 10.38L184.30 10.38L184.30 10.38Q184.81 10.67 185.15 11.01L185.15 11.01L185.15 11.01Q185.49 11.35 185.65 11.79L185.65 11.79L185.65 11.79Q185.82 12.22 185.82 12.84L185.82 12.84L185.82 12.84Q185.82 13.55 185.58 14.18L185.58 14.18L185.58 14.18Q185.35 14.80 184.89 15.26L184.89 15.26L184.89 15.26Q184.44 15.72 183.79 15.98L183.79 15.98L183.79 15.98Q183.15 16.24 182.35 16.24L182.35 16.24L182.35 16.24Q181.57 16.24 180.66 16.00L180.66 16.00L180.66 16.00Q179.75 15.76 178.95 15.35L178.95 15.35L178.95 15.35Q178.16 14.94 177.64 14.40L177.64 14.40L177.64 14.40Q177.11 13.86 177.11 13.26L177.11 13.26L177.11 13.26Q177.11 12.98 177.27 12.54L177.27 12.54L177.27 12.54Q177.44 12.11 177.86 11.63L177.86 11.63L177.86 11.63Q177.90 12.05 178.31 12.63L178.31 12.63L178.31 12.63Q178.72 13.20 179.55 13.69L179.55 13.69L179.55 13.69Q180.32 14.14 181.14 14.34L181.14 14.34L181.14 14.34Q181.96 14.55 182.67 14.55L182.67 14.55L182.67 14.55Q183.46 14.55 183.95 14.35L183.95 14.35L183.95 14.35Q184.44 14.15 184.72 13.88L184.72 13.88L184.72 13.88Q185.00 13.61 185.11 13.33L185.11 13.33L185.11 13.33Q185.22 13.05 185.23 12.88L185.23 12.88L185.23 12.88Q185.22 12.60 184.97 12.34L184.97 12.34L184.97 12.34Q184.73 12.08 184.32 11.84L184.32 11.84L184.32 11.84Q183.90 11.59 183.36 11.34L183.36 11.34L183.36 11.34Q182.81 11.09 182.22 10.84L182.22 10.84L182.22 10.84Q181.34 10.44 180.70 10.10L180.70 10.10L180.70 10.10Q180.07 9.76 179.66 9.40L179.66 9.40L179.66 9.40Q179.24 9.04 179.05 8.65L179.05 8.65L179.05 8.65Q178.86 8.26 178.86 7.76L178.86 7.76L178.86 7.76Q178.86 6.97 179.34 6.27L179.34 6.27L179.34 6.27Q179.82 5.57 180.71 5.21L180.71 5.21L180.71 5.21Q181.16 5.01 181.67 4.93L181.67 4.93L181.67 4.93Q182.18 4.84 182.67 4.84L182.67 4.84L182.67 4.84Q183.60 4.84 184.48 5.10L184.48 5.10L184.48 5.10Q185.36 5.35 186.24 5.74ZM213.92 7.46L213.92 7.46L213.92 7.46Q213.92 8.33 213.44 9.01L213.44 9.01L213.44 9.01Q212.97 9.69 212.14 10.14L212.14 10.14L212.14 10.14Q212.67 10.50 212.99 11.03L212.99 11.03L212.99 11.03Q213.30 11.55 213.30 12.18L213.30 12.18L213.30 12.18Q213.30 12.94 212.85 13.67L212.85 13.67L212.85 13.67Q212.39 14.41 211.64 14.97L211.64 14.97L211.64 14.97Q210.88 15.54 209.92 15.89L209.92 15.89L209.92 15.89Q208.95 16.24 207.94 16.24L207.94 16.24L207.94 16.24Q206.85 16.24 206.03 15.83L206.03 15.83L206.03 15.83Q205.21 15.41 204.75 14.66L204.75 14.66L204.75 14.66Q204.89 14.24 205.12 13.62L205.12 13.62L205.12 13.62Q205.35 12.99 205.63 12.30L205.63 12.30L205.63 12.30Q205.91 11.61 206.20 10.92L206.20 10.92L206.20 10.92Q206.49 10.23 206.74 9.69L206.74 9.69L206.74 9.69Q207.27 8.50 207.69 7.71L207.69 7.71L207.69 7.71Q208.11 6.93 208.46 6.47L208.46 6.47L208.46 6.47Q207.69 6.71 207.06 7.01L207.06 7.01L207.06 7.01Q206.43 7.31 206.14 7.59L206.14 7.59L206.14 7.59Q206.01 7.50 205.88 7.34L205.88 7.34L205.88 7.34Q205.74 7.17 205.62 6.96L205.62 6.96L205.62 6.96Q205.51 6.76 205.43 6.55L205.43 6.55L205.43 6.55Q205.35 6.34 205.34 6.17L205.34 6.17L205.34 6.17Q205.70 5.92 206.28 5.69L206.28 5.69L206.28 5.69Q206.86 5.46 207.55 5.29L207.55 5.29L207.55 5.29Q208.24 5.12 208.96 5.03L208.96 5.03L208.96 5.03Q209.68 4.93 210.34 4.93L210.34 4.93L210.34 4.93Q212.02 4.93 212.97 5.60L212.97 5.60L212.97 5.60Q213.92 6.27 213.92 7.46ZM208.59 10.81L208.59 10.81L208.59 10.81Q208.32 10.68 208.10 10.43L208.10 10.43L208.10 10.43Q207.77 11.14 207.49 11.83L207.49 11.83L207.49 11.83Q207.20 12.52 206.98 13.10L206.98 13.10L206.98 13.10Q206.75 13.69 206.61 14.13L206.61 14.13L206.61 14.13Q206.47 14.56 206.46 14.76L206.46 14.76L206.46 14.76Q206.65 14.87 206.93 14.92L206.93 14.92L206.93 14.92Q207.20 14.98 207.61 14.98L207.61 14.98L207.61 14.98Q208.56 14.98 209.43 14.71L209.43 14.71L209.43 14.71Q210.29 14.45 210.95 13.99L210.95 13.99L210.95 13.99Q211.61 13.54 212.00 12.95L212.00 12.95L212.00 12.95Q212.39 12.36 212.39 11.72L212.39 11.72L212.39 11.72Q212.39 10.79 211.60 10.39L211.60 10.39L211.60 10.39Q210.50 10.84 209.13 10.84L209.13 10.84L209.13 10.84Q208.94 10.84 208.83 10.84L208.83 10.84L208.83 10.84Q208.73 10.84 208.59 10.81ZM211.30 5.95L211.30 5.95L211.30 5.95Q211.01 5.95 210.68 5.98L210.68 5.98L210.68 5.98Q210.35 6.02 209.99 6.09L209.99 6.09L209.99 6.09Q210.04 6.15 210.08 6.21L210.08 6.21L210.08 6.21Q210.11 6.27 210.14 6.34L210.14 6.34L210.14 6.34Q210.01 6.51 209.83 6.83L209.83 6.83L209.83 6.83Q209.65 7.15 209.43 7.58L209.43 7.58L209.43 7.58Q209.20 8.01 208.96 8.53L208.96 8.53L208.96 8.53Q208.71 9.04 208.46 9.59L208.46 9.59L208.46 9.59Q208.70 9.53 209.04 9.50L209.04 9.50L209.04 9.50Q209.38 9.46 209.72 9.46L209.72 9.46L209.72 9.46Q209.90 9.46 210.08 9.48L210.08 9.48L210.08 9.48Q210.25 9.49 210.42 9.52L210.42 9.52L210.42 9.52Q211.09 9.41 211.63 9.19L211.63 9.19L211.63 9.19Q212.17 8.97 212.56 8.69L212.56 8.69L212.56 8.69Q212.95 8.40 213.16 8.05L213.16 8.05L213.16 8.05Q213.37 7.70 213.37 7.31L213.37 7.31L213.37 7.31Q213.37 6.64 212.84 6.29L212.84 6.29L212.84 6.29Q212.31 5.95 211.30 5.95ZM227.05 9.21L227.05 9.21L227.05 9.21Q227.51 9.21 227.77 9.46L227.77 9.46L227.77 9.46Q228.03 9.72 228.03 10.16L228.03 10.16L228.03 10.16Q228.03 10.28 228.01 10.39L228.01 10.39L228.01 10.39Q227.99 10.51 227.96 10.60L227.96 10.60L227.96 10.60Q227.78 10.57 227.56 10.55L227.56 10.55L227.56 10.55Q227.33 10.53 227.02 10.53L227.02 10.53L227.02 10.53Q226.42 10.53 225.81 10.63L225.81 10.63L225.81 10.63Q225.19 10.74 224.63 10.81L224.63 10.81L224.63 10.81Q224.31 11.55 224.04 12.24L224.04 12.24L224.04 12.24Q223.78 12.94 223.59 13.51L223.59 13.51L223.59 13.51Q223.40 14.08 223.29 14.50L223.29 14.50L223.29 14.50Q223.19 14.92 223.17 15.13L223.17 15.13L223.17 15.13Q224.31 14.90 225.46 14.73L225.46 14.73L225.46 14.73Q226.62 14.56 227.89 14.48L227.89 14.48L227.89 14.48Q228.05 14.71 228.15 14.99L228.15 14.99L228.15 14.99Q228.26 15.27 228.26 15.60L228.26 15.60L228.26 15.60Q228.26 15.68 228.26 15.78L228.26 15.78L228.26 15.78Q228.26 15.88 228.23 15.97L228.23 15.97L228.23 15.97Q227.84 15.96 227.40 15.95L227.40 15.95L227.40 15.95Q226.97 15.95 226.27 15.95L226.27 15.95L226.27 15.95Q225.81 15.95 225.39 15.97L225.39 15.97L225.39 15.97Q224.98 15.99 224.56 16.03L224.56 16.03L224.56 16.03Q224.14 16.07 223.67 16.14L223.67 16.14L223.67 16.14Q223.20 16.21 222.61 16.31L222.61 16.31L222.61 16.31Q221.97 16.06 221.37 15.08L221.37 15.08L221.37 15.08Q221.61 14.57 222.03 13.54L222.03 13.54L222.03 13.54Q222.46 12.52 223.12 10.79L223.12 10.79L223.12 10.79Q222.49 10.60 222.29 10.09L222.29 10.09L222.29 10.09Q222.36 10.02 222.70 9.92L222.70 9.92L222.70 9.92Q223.03 9.81 223.52 9.70L223.52 9.70L223.52 9.70Q223.73 9.16 223.88 8.75L223.88 8.75L223.88 8.75Q224.03 8.34 224.14 7.99L224.14 7.99L224.14 7.99Q224.25 7.63 224.34 7.29L224.34 7.29L224.34 7.29Q224.43 6.94 224.52 6.54L224.52 6.54L224.52 6.54Q224.03 6.51 223.75 6.27L223.75 6.27L223.75 6.27Q223.47 6.02 223.47 5.63L223.47 5.63L223.47 5.63Q223.47 5.52 223.50 5.36L223.50 5.36L223.50 5.36Q223.54 5.21 223.58 5.10L223.58 5.10L223.58 5.10Q223.86 5.14 224.12 5.15L224.12 5.15L224.12 5.15Q224.38 5.17 224.80 5.17L224.80 5.17L224.80 5.17Q225.68 5.17 226.45 5.12L226.45 5.12L226.45 5.12Q227.22 5.07 227.84 5.01L227.84 5.01L227.84 5.01Q228.47 4.96 228.91 4.91L228.91 4.91L228.91 4.91Q229.36 4.86 229.60 4.86L229.60 4.86L229.60 4.86Q229.92 4.86 230.17 5.19L230.17 5.19L230.17 5.19Q230.43 5.53 230.55 6.15L230.55 6.15L230.55 6.15Q230.12 6.10 229.84 6.09L229.84 6.09L229.84 6.09Q229.57 6.08 229.36 6.08L229.36 6.08L229.36 6.08Q228.59 6.08 227.95 6.15L227.95 6.15L227.95 6.15Q227.32 6.23 226.73 6.31L226.73 6.31L226.73 6.31Q226.65 6.44 226.54 6.64L226.54 6.64L226.54 6.64Q226.44 6.83 226.27 7.18L226.27 7.18L226.27 7.18Q226.10 7.53 225.85 8.06L225.85 8.06L225.85 8.06Q225.61 8.60 225.26 9.39L225.26 9.39L225.26 9.39Q225.79 9.31 226.26 9.26L226.26 9.26L226.26 9.26Q226.73 9.21 227.05 9.21ZM239.57 6.69L239.57 6.69L239.57 6.69Q239.01 6.69 238.71 6.38L238.71 6.38L238.71 6.38Q238.41 6.06 238.41 5.61L238.41 5.61L238.41 5.61Q238.41 5.50 238.44 5.35L238.44 5.35L238.44 5.35Q238.48 5.19 238.53 5.08L238.53 5.08L238.53 5.08Q238.71 5.17 239.07 5.20L239.07 5.20L239.07 5.20Q239.43 5.24 239.90 5.24L239.90 5.24L239.90 5.24Q240.62 5.24 241.52 5.17L241.52 5.17L241.52 5.17Q242.42 5.11 243.25 5.04L243.25 5.04L243.25 5.04Q244.08 4.97 244.71 4.91L244.71 4.91L244.71 4.91Q245.34 4.84 245.52 4.84L245.52 4.84L245.52 4.84Q246.04 4.84 246.27 5.23L246.27 5.23L246.27 5.23Q246.50 5.61 246.61 6.26L246.61 6.26L246.61 6.26Q246.25 6.23 245.89 6.21L245.89 6.21L245.89 6.21Q245.53 6.19 245.28 6.19L245.28 6.19L245.28 6.19Q244.83 6.19 244.38 6.22L244.38 6.22L244.38 6.22Q243.92 6.24 243.46 6.30L243.46 6.30L243.46 6.30Q243.26 6.71 243.03 7.26L243.03 7.26L243.03 7.26Q242.79 7.81 242.56 8.41L242.56 8.41L242.56 8.41Q242.33 9.02 242.12 9.61L242.12 9.61L242.12 9.61Q241.91 10.21 241.75 10.68L241.75 10.68L241.75 10.68Q241.44 11.61 241.21 12.39L241.21 12.39L241.21 12.39Q240.98 13.17 240.81 13.85L240.81 13.85L240.81 13.85Q240.63 14.53 240.51 15.15L240.51 15.15L240.51 15.15Q240.38 15.76 240.28 16.35L240.28 16.35L240.28 16.35Q239.34 16.21 238.71 15.18L238.71 15.18L238.71 15.18Q238.83 14.74 238.99 14.23L238.99 14.23L238.99 14.23Q239.15 13.72 239.37 13.07L239.37 13.07L239.37 13.07Q239.58 12.42 239.88 11.59L239.88 11.59L239.88 11.59Q240.17 10.77 240.55 9.72L240.55 9.72L240.55 9.72Q240.69 9.32 240.84 8.90L240.84 8.90L240.84 8.90Q241.00 8.47 241.14 8.05L241.14 8.05L241.14 8.05Q241.29 7.63 241.41 7.24L241.41 7.24L241.41 7.24Q241.53 6.85 241.61 6.52L241.61 6.52L241.61 6.52Q241.02 6.59 240.50 6.64L240.50 6.64L240.50 6.64Q239.97 6.69 239.57 6.69ZM254.80 6.69L254.80 6.69L254.80 6.69Q254.24 6.69 253.94 6.38L253.94 6.38L253.94 6.38Q253.64 6.06 253.64 5.61L253.64 5.61L253.64 5.61Q253.64 5.50 253.67 5.35L253.67 5.35L253.67 5.35Q253.71 5.19 253.76 5.08L253.76 5.08L253.76 5.08Q253.95 5.17 254.30 5.20L254.30 5.20L254.30 5.20Q254.66 5.24 255.14 5.24L255.14 5.24L255.14 5.24Q255.85 5.24 256.75 5.17L256.75 5.17L256.75 5.17Q257.66 5.11 258.48 5.04L258.48 5.04L258.48 5.04Q259.31 4.97 259.94 4.91L259.94 4.91L259.94 4.91Q260.57 4.84 260.75 4.84L260.75 4.84L260.75 4.84Q261.27 4.84 261.50 5.23L261.50 5.23L261.50 5.23Q261.73 5.61 261.84 6.26L261.84 6.26L261.84 6.26Q261.48 6.23 261.12 6.21L261.12 6.21L261.12 6.21Q260.76 6.19 260.51 6.19L260.51 6.19L260.51 6.19Q260.06 6.19 259.61 6.22L259.61 6.22L259.61 6.22Q259.15 6.24 258.69 6.30L258.69 6.30L258.69 6.30Q258.50 6.71 258.26 7.26L258.26 7.26L258.26 7.26Q258.02 7.81 257.79 8.41L257.79 8.41L257.79 8.41Q257.56 9.02 257.35 9.61L257.35 9.61L257.35 9.61Q257.14 10.21 256.98 10.68L256.98 10.68L256.98 10.68Q256.68 11.61 256.44 12.39L256.44 12.39L256.44 12.39Q256.21 13.17 256.04 13.85L256.04 13.85L256.04 13.85Q255.86 14.53 255.74 15.15L255.74 15.15L255.74 15.15Q255.61 15.76 255.51 16.35L255.51 16.35L255.51 16.35Q254.58 16.21 253.95 15.18L253.95 15.18L253.95 15.18Q254.06 14.74 254.22 14.23L254.22 14.23L254.22 14.23Q254.38 13.72 254.60 13.07L254.60 13.07L254.60 13.07Q254.81 12.42 255.11 11.59L255.11 11.59L255.11 11.59Q255.40 10.77 255.78 9.72L255.78 9.72L255.78 9.72Q255.92 9.32 256.07 8.90L256.07 8.90L256.07 8.90Q256.23 8.47 256.38 8.05L256.38 8.05L256.38 8.05Q256.52 7.63 256.64 7.24L256.64 7.24L256.64 7.24Q256.76 6.85 256.84 6.52L256.84 6.52L256.84 6.52Q256.26 6.59 255.73 6.64L255.73 6.64L255.73 6.64Q255.21 6.69 254.80 6.69ZM273.04 9.21L273.04 9.21L273.04 9.21Q273.50 9.21 273.76 9.46L273.76 9.46L273.76 9.46Q274.02 9.72 274.02 10.16L274.02 10.16L274.02 10.16Q274.02 10.28 274.00 10.39L274.00 10.39L274.00 10.39Q273.98 10.51 273.95 10.60L273.95 10.60L273.95 10.60Q273.77 10.57 273.55 10.55L273.55 10.55L273.55 10.55Q273.32 10.53 273.01 10.53L273.01 10.53L273.01 10.53Q272.41 10.53 271.80 10.63L271.80 10.63L271.80 10.63Q271.18 10.74 270.62 10.81L270.62 10.81L270.62 10.81Q270.30 11.55 270.03 12.24L270.03 12.24L270.03 12.24Q269.77 12.94 269.58 13.51L269.58 13.51L269.58 13.51Q269.39 14.08 269.28 14.50L269.28 14.50L269.28 14.50Q269.18 14.92 269.16 15.13L269.16 15.13L269.16 15.13Q270.30 14.90 271.45 14.73L271.45 14.73L271.45 14.73Q272.61 14.56 273.88 14.48L273.88 14.48L273.88 14.48Q274.04 14.71 274.14 14.99L274.14 14.99L274.14 14.99Q274.25 15.27 274.25 15.60L274.25 15.60L274.25 15.60Q274.25 15.68 274.25 15.78L274.25 15.78L274.25 15.78Q274.25 15.88 274.22 15.97L274.22 15.97L274.22 15.97Q273.83 15.96 273.39 15.95L273.39 15.95L273.39 15.95Q272.96 15.95 272.26 15.95L272.26 15.95L272.26 15.95Q271.80 15.95 271.38 15.97L271.38 15.97L271.38 15.97Q270.97 15.99 270.55 16.03L270.55 16.03L270.55 16.03Q270.13 16.07 269.66 16.14L269.66 16.14L269.66 16.14Q269.19 16.21 268.60 16.31L268.60 16.31L268.60 16.31Q267.96 16.06 267.36 15.08L267.36 15.08L267.36 15.08Q267.60 14.57 268.02 13.54L268.02 13.54L268.02 13.54Q268.45 12.52 269.11 10.79L269.11 10.79L269.11 10.79Q268.48 10.60 268.28 10.09L268.28 10.09L268.28 10.09Q268.35 10.02 268.69 9.92L268.69 9.92L268.69 9.92Q269.02 9.81 269.51 9.70L269.51 9.70L269.51 9.70Q269.72 9.16 269.87 8.75L269.87 8.75L269.87 8.75Q270.02 8.34 270.13 7.99L270.13 7.99L270.13 7.99Q270.24 7.63 270.33 7.29L270.33 7.29L270.33 7.29Q270.42 6.94 270.51 6.54L270.51 6.54L270.51 6.54Q270.02 6.51 269.74 6.27L269.74 6.27L269.74 6.27Q269.46 6.02 269.46 5.63L269.46 5.63L269.46 5.63Q269.46 5.52 269.49 5.36L269.49 5.36L269.49 5.36Q269.53 5.21 269.57 5.10L269.57 5.10L269.57 5.10Q269.85 5.14 270.11 5.15L270.11 5.15L270.11 5.15Q270.37 5.17 270.79 5.17L270.79 5.17L270.79 5.17Q271.67 5.17 272.44 5.12L272.44 5.12L272.44 5.12Q273.21 5.07 273.83 5.01L273.83 5.01L273.83 5.01Q274.46 4.96 274.90 4.91L274.90 4.91L274.90 4.91Q275.35 4.86 275.59 4.86L275.59 4.86L275.59 4.86Q275.91 4.86 276.16 5.19L276.16 5.19L276.16 5.19Q276.42 5.53 276.54 6.15L276.54 6.15L276.54 6.15Q276.11 6.10 275.83 6.09L275.83 6.09L275.83 6.09Q275.56 6.08 275.35 6.08L275.35 6.08L275.35 6.08Q274.58 6.08 273.94 6.15L273.94 6.15L273.94 6.15Q273.31 6.23 272.72 6.31L272.72 6.31L272.72 6.31Q272.64 6.44 272.53 6.64L272.53 6.64L272.53 6.64Q272.43 6.83 272.26 7.18L272.26 7.18L272.26 7.18Q272.09 7.53 271.85 8.06L271.85 8.06L271.85 8.06Q271.60 8.60 271.25 9.39L271.25 9.39L271.25 9.39Q271.78 9.31 272.25 9.26L272.25 9.26L272.25 9.26Q272.72 9.21 273.04 9.21ZM292.31 7.46L292.31 7.46L292.31 7.46Q292.31 8.13 292.00 8.73L292.00 8.73L292.00 8.73Q291.70 9.32 291.17 9.79L291.17 9.79L291.17 9.79Q290.64 10.26 289.93 10.58L289.93 10.58L289.93 10.58Q289.21 10.91 288.37 11.02L288.37 11.02L288.37 11.02Q288.58 11.65 288.88 12.31L288.88 12.31L288.88 12.31Q289.18 12.98 289.53 13.59L289.53 13.59L289.53 13.59Q289.88 14.21 290.26 14.73L290.26 14.73L290.26 14.73Q290.64 15.25 291.00 15.58L291.00 15.58L291.00 15.58Q290.93 15.72 290.80 15.86L290.80 15.86L290.80 15.86Q290.67 16.00 290.49 16.12L290.49 16.12L290.49 16.12Q290.32 16.24 290.13 16.32L290.13 16.32L290.13 16.32Q289.94 16.39 289.77 16.39L289.77 16.39L289.77 16.39Q289.46 16.39 289.18 16.10L289.18 16.10L289.18 16.10Q288.90 15.81 288.62 15.17L288.62 15.17L288.62 15.17Q288.33 14.53 288.01 13.52L288.01 13.52L288.01 13.52Q287.70 12.50 287.32 11.07L287.32 11.07L287.32 11.07Q287.17 11.07 287.01 11.07L287.01 11.07L287.01 11.07Q286.86 11.07 286.78 11.05L286.78 11.05L286.78 11.05Q286.68 10.99 286.57 10.85L286.57 10.85L286.57 10.85Q286.19 11.66 285.89 12.38L285.89 12.38L285.89 12.38Q285.60 13.09 285.37 13.76L285.37 13.76L285.37 13.76Q285.14 14.42 284.96 15.04L284.96 15.04L284.96 15.04Q284.79 15.67 284.66 16.31L284.66 16.31L284.66 16.31Q284.19 16.20 283.84 15.90L283.84 15.90L283.84 15.90Q283.49 15.61 283.18 15.08L283.18 15.08L283.18 15.08Q283.23 14.95 283.30 14.83L283.30 14.83L283.30 14.83Q283.36 14.71 283.46 14.50L283.46 14.50L283.46 14.50Q283.56 14.28 283.70 13.94L283.70 13.94L283.70 13.94Q283.85 13.61 284.10 13.05L284.10 13.05L284.10 13.05Q284.34 12.49 284.68 11.68L284.68 11.68L284.68 11.68Q285.03 10.86 285.52 9.70L285.52 9.70L285.52 9.70Q285.74 9.18 285.90 8.79L285.90 8.79L285.90 8.79Q286.06 8.40 286.19 8.04L286.19 8.04L286.19 8.04Q286.31 7.69 286.42 7.33L286.42 7.33L286.42 7.33Q286.52 6.97 286.64 6.51L286.64 6.51L286.64 6.51Q285.99 6.73 285.44 7.01L285.44 7.01L285.44 7.01Q284.89 7.28 284.52 7.59L284.52 7.59L284.52 7.59Q284.40 7.50 284.26 7.34L284.26 7.34L284.26 7.34Q284.13 7.17 284.02 6.96L284.02 6.96L284.02 6.96Q283.91 6.76 283.82 6.55L283.82 6.55L283.82 6.55Q283.74 6.34 283.72 6.17L283.72 6.17L283.72 6.17Q284.14 5.89 284.75 5.66L284.75 5.66L284.75 5.66Q285.36 5.42 286.05 5.24L286.05 5.24L286.05 5.24Q286.73 5.07 287.45 4.97L287.45 4.97L287.45 4.97Q288.16 4.87 288.78 4.87L288.78 4.87L288.78 4.87Q290.46 4.87 291.38 5.56L291.38 5.56L291.38 5.56Q292.31 6.26 292.31 7.46ZM288.72 6.02L288.89 6.29L288.89 6.29Q288.79 6.41 288.58 6.79L288.58 6.79L288.58 6.79Q288.37 7.17 288.10 7.69L288.10 7.69L288.10 7.69Q287.83 8.22 287.53 8.83L287.53 8.83L287.53 8.83Q287.22 9.45 286.94 10.05L286.94 10.05L286.94 10.05Q287.99 10.05 288.88 9.86L288.88 9.86L288.88 9.86Q289.76 9.66 290.40 9.30L290.40 9.30L290.40 9.30Q291.05 8.95 291.40 8.46L291.40 8.46L291.40 8.46Q291.76 7.98 291.76 7.39L291.76 7.39L291.76 7.39Q291.76 6.69 291.26 6.32L291.26 6.32L291.26 6.32Q290.75 5.95 289.70 5.95L289.70 5.95L289.70 5.95Q289.46 5.95 289.23 5.97L289.23 5.97L289.23 5.97Q288.99 5.99 288.72 6.02L288.72 6.02ZM311.58 15.61L311.58 15.61L311.58 15.61Q311.51 15.04 311.48 14.36L311.48 14.36L311.48 14.36Q311.44 13.68 311.44 13.09L311.44 13.09L311.44 13.09Q311.44 12.15 311.51 11.29L311.51 11.29L311.51 11.29Q311.57 10.43 311.66 9.48L311.66 9.48L311.66 9.48Q311.75 8.54 311.86 7.43L311.86 7.43L311.86 7.43Q311.98 6.31 312.06 4.86L312.06 4.86L312.06 4.86Q312.24 4.86 312.58 4.96L312.58 4.96L312.58 4.96Q312.93 5.07 313.28 5.21L313.28 5.21L313.28 5.21Q313.63 5.35 313.89 5.49L313.89 5.49L313.89 5.49Q314.16 5.64 314.20 5.74L314.20 5.74L314.20 5.74Q313.96 6.29 313.77 7.18L313.77 7.18L313.77 7.18Q313.59 8.06 313.46 9.11L313.46 9.11L313.46 9.11Q313.33 10.16 313.26 11.27L313.26 11.27L313.26 11.27Q313.19 12.38 313.19 13.34L313.19 13.34L313.19 13.34Q313.19 13.79 313.21 14.22L313.21 14.22L313.21 14.22Q313.22 14.66 313.25 15.02L313.25 15.02L313.25 15.02Q313.54 14.59 313.93 13.78L313.93 13.78L313.93 13.78Q314.31 12.98 314.73 11.98L314.73 11.98L314.73 11.98Q315.14 10.99 315.55 9.91L315.55 9.91L315.55 9.91Q315.97 8.82 316.32 7.83L316.32 7.83L316.32 7.83Q316.67 6.85 316.91 6.05L316.91 6.05L316.91 6.05Q317.16 5.26 317.25 4.86L317.25 4.86L317.25 4.86Q317.44 4.86 317.79 4.96L317.79 4.96L317.79 4.96Q318.15 5.07 318.49 5.21L318.49 5.21L318.49 5.21Q318.84 5.35 319.10 5.49L319.10 5.49L319.10 5.49Q319.37 5.64 319.40 5.74L319.40 5.74L319.40 5.74Q319.16 6.29 318.97 7.18L318.97 7.18L318.97 7.18Q318.78 8.06 318.65 9.11L318.65 9.11L318.65 9.11Q318.53 10.16 318.46 11.27L318.46 11.27L318.46 11.27Q318.39 12.38 318.39 13.34L318.39 13.34L318.39 13.34Q318.39 13.75 318.39 14.15L318.39 14.15L318.39 14.15Q318.40 14.55 318.43 14.87L318.43 14.87L318.43 14.87Q318.88 13.71 319.36 12.56L319.36 12.56L319.36 12.56Q319.84 11.42 320.32 10.38L320.32 10.38L320.32 10.38Q320.80 9.34 321.24 8.43L321.24 8.43L321.24 8.43Q321.69 7.53 322.07 6.82L322.07 6.82L322.07 6.82Q322.45 6.12 322.73 5.66L322.73 5.66L322.73 5.66Q323.01 5.19 323.16 5.04L323.16 5.04L323.16 5.04Q323.48 5.08 323.83 5.27L323.83 5.27L323.83 5.27Q324.17 5.46 324.44 5.75L324.44 5.75L324.44 5.75Q324.03 6.08 323.51 6.81L323.51 6.81L323.51 6.81Q322.99 7.55 322.45 8.51L322.45 8.51L322.45 8.51Q321.90 9.48 321.35 10.57L321.35 10.57L321.35 10.57Q320.80 11.66 320.32 12.70L320.32 12.70L320.32 12.70Q319.84 13.73 319.47 14.63L319.47 14.63L319.47 14.63Q319.10 15.53 318.91 16.07L318.91 16.07L318.91 16.07Q318.54 16.24 318.19 16.24L318.19 16.24L318.19 16.24Q317.74 16.18 317.34 16.02L317.34 16.02L317.34 16.02Q316.95 15.85 316.78 15.61L316.78 15.61L316.78 15.61Q316.74 15.39 316.71 15.09L316.71 15.09L316.71 15.09Q316.68 14.78 316.67 14.49L316.67 14.49L316.67 14.49Q316.65 14.20 316.64 13.92L316.64 13.92L316.64 13.92Q316.64 13.65 316.64 13.45L316.64 13.45L316.64 13.45Q316.64 12.21 316.74 10.91L316.74 10.91L316.74 10.91Q316.83 9.62 316.97 8.13L316.97 8.13L316.97 8.13Q316.65 9.09 316.26 10.18L316.26 10.18L316.26 10.18Q315.87 11.27 315.44 12.34L315.44 12.34L315.44 12.34Q315.01 13.41 314.57 14.38L314.57 14.38L314.57 14.38Q314.13 15.36 313.71 16.07L313.71 16.07L313.71 16.07Q313.35 16.24 313.00 16.24L313.00 16.24L313.00 16.24Q312.55 16.18 312.15 16.02L312.15 16.02L312.15 16.02Q311.75 15.85 311.58 15.61ZM330.55 14.38L330.55 14.38L330.55 14.38Q330.55 13.87 330.71 13.07L330.71 13.07L330.71 13.07Q330.88 12.26 331.13 11.33L331.13 11.33L331.13 11.33Q331.39 10.40 331.73 9.43L331.73 9.43L331.73 9.43Q332.07 8.46 332.42 7.60L332.42 7.60L332.42 7.60Q332.77 6.75 333.10 6.10L333.10 6.10L333.10 6.10Q333.44 5.46 333.70 5.18L333.70 5.18L333.70 5.18Q333.84 5.19 334.07 5.29L334.07 5.29L334.07 5.29Q334.31 5.38 334.54 5.50L334.54 5.50L334.54 5.50Q334.78 5.63 334.98 5.78L334.98 5.78L334.98 5.78Q335.17 5.92 335.23 6.05L335.23 6.05L335.23 6.05Q334.82 6.41 334.42 7.15L334.42 7.15L334.42 7.15Q334.03 7.88 333.65 8.82L333.65 8.82L333.65 8.82Q333.28 9.76 332.96 10.80L332.96 10.80L332.96 10.80Q332.64 11.84 332.40 12.82L332.40 12.82L332.40 12.82Q332.16 13.80 332.03 14.64L332.03 14.64L332.03 14.64Q331.90 15.48 331.90 16.00L331.90 16.00L331.90 16.00Q331.90 16.24 331.94 16.30L331.94 16.30L331.94 16.30Q331.63 16.28 331.49 16.19L331.49 16.19L331.49 16.19Q331.35 16.10 331.27 16.00L331.27 16.00L331.27 16.00Q331.20 15.89 331.13 15.79L331.13 15.79L331.13 15.79Q331.07 15.68 330.95 15.62L330.95 15.62L330.95 15.62Q330.85 15.58 330.78 15.43L330.78 15.43L330.78 15.43Q330.71 15.27 330.66 15.09L330.66 15.09L330.66 15.09Q330.61 14.90 330.58 14.70L330.58 14.70L330.58 14.70Q330.55 14.50 330.55 14.38ZM344.32 6.69L344.32 6.69L344.32 6.69Q343.76 6.69 343.45 6.38L343.45 6.38L343.45 6.38Q343.15 6.06 343.15 5.61L343.15 5.61L343.15 5.61Q343.15 5.50 343.19 5.35L343.19 5.35L343.19 5.35Q343.22 5.19 343.28 5.08L343.28 5.08L343.28 5.08Q343.46 5.17 343.82 5.20L343.82 5.20L343.82 5.20Q344.18 5.24 344.65 5.24L344.65 5.24L344.65 5.24Q345.37 5.24 346.27 5.17L346.27 5.17L346.27 5.17Q347.17 5.11 348.00 5.04L348.00 5.04L348.00 5.04Q348.82 4.97 349.45 4.91L349.45 4.91L349.45 4.91Q350.08 4.84 350.27 4.84L350.27 4.84L350.27 4.84Q350.78 4.84 351.01 5.23L351.01 5.23L351.01 5.23Q351.25 5.61 351.36 6.26L351.36 6.26L351.36 6.26Q350.99 6.23 350.64 6.21L350.64 6.21L350.64 6.21Q350.28 6.19 350.03 6.19L350.03 6.19L350.03 6.19Q349.58 6.19 349.13 6.22L349.13 6.22L349.13 6.22Q348.67 6.24 348.21 6.30L348.21 6.30L348.21 6.30Q348.01 6.71 347.77 7.26L347.77 7.26L347.77 7.26Q347.54 7.81 347.31 8.41L347.31 8.41L347.31 8.41Q347.07 9.02 346.86 9.61L346.86 9.61L346.86 9.61Q346.65 10.21 346.50 10.68L346.50 10.68L346.50 10.68Q346.19 11.61 345.96 12.39L345.96 12.39L345.96 12.39Q345.73 13.17 345.56 13.85L345.56 13.85L345.56 13.85Q345.38 14.53 345.25 15.15L345.25 15.15L345.25 15.15Q345.13 15.76 345.03 16.35L345.03 16.35L345.03 16.35Q344.09 16.21 343.46 15.18L343.46 15.18L343.46 15.18Q343.57 14.74 343.74 14.23L343.74 14.23L343.74 14.23Q343.90 13.72 344.11 13.07L344.11 13.07L344.11 13.07Q344.33 12.42 344.62 11.59L344.62 11.59L344.62 11.59Q344.92 10.77 345.30 9.72L345.30 9.72L345.30 9.72Q345.44 9.32 345.59 8.90L345.59 8.90L345.59 8.90Q345.74 8.47 345.89 8.05L345.89 8.05L345.89 8.05Q346.04 7.63 346.16 7.24L346.16 7.24L346.16 7.24Q346.28 6.85 346.36 6.52L346.36 6.52L346.36 6.52Q345.77 6.59 345.25 6.64L345.25 6.64L345.25 6.64Q344.72 6.69 344.32 6.69ZM362.24 14.36L362.24 14.36L362.24 14.36Q362.24 13.78 362.43 12.85L362.43 12.85L362.43 12.85Q362.63 11.93 362.95 10.88L362.95 10.88L362.95 10.88Q362.03 10.95 361.09 11.06L361.09 11.06L361.09 11.06Q360.16 11.17 359.48 11.19L359.48 11.19L359.48 11.19Q358.85 12.66 358.48 13.89L358.48 13.89L358.48 13.89Q358.11 15.13 357.90 16.31L357.90 16.31L357.90 16.31Q357.36 16.18 357.01 15.87L357.01 15.87L357.01 15.87Q356.66 15.55 356.37 15.08L356.37 15.08L356.37 15.08Q356.48 14.85 356.63 14.50L356.63 14.50L356.63 14.50Q356.78 14.15 356.98 13.66L356.98 13.66L356.98 13.66Q357.18 13.16 357.44 12.50L357.44 12.50L357.44 12.50Q357.70 11.83 358.04 10.95L358.04 10.95L358.04 10.95Q357.57 10.75 357.42 10.40L357.42 10.40L357.42 10.40Q357.49 10.35 357.73 10.28L357.73 10.28L357.73 10.28Q357.98 10.22 358.34 10.15L358.34 10.15L358.53 9.70L358.53 9.70Q358.82 8.95 359.01 8.43L359.01 8.43L359.01 8.43Q359.20 7.91 359.33 7.41L359.33 7.41L359.33 7.41Q359.46 6.92 359.58 6.31L359.58 6.31L359.58 6.31Q359.70 5.71 359.87 4.79L359.87 4.79L359.87 4.79Q360.46 4.90 360.94 5.31L360.94 5.31L360.94 5.31Q361.42 5.71 361.77 6.29L361.77 6.29L361.77 6.29Q361.65 6.45 361.47 6.79L361.47 6.79L361.47 6.79Q361.28 7.13 361.07 7.59L361.07 7.59L361.07 7.59Q360.85 8.06 360.60 8.64L360.60 8.64L360.60 8.64Q360.35 9.23 360.05 9.87L360.05 9.87L360.05 9.87Q360.92 9.76 361.81 9.66L361.81 9.66L361.81 9.66Q362.70 9.56 363.38 9.52L363.38 9.52L363.38 9.52Q363.64 8.79 363.91 8.10L363.91 8.10L363.91 8.10Q364.18 7.41 364.45 6.83L364.45 6.83L364.45 6.83Q364.71 6.26 364.96 5.82L364.96 5.82L364.96 5.82Q365.20 5.39 365.40 5.18L365.40 5.18L365.40 5.18Q365.54 5.19 365.77 5.29L365.77 5.29L365.77 5.29Q366.00 5.38 366.24 5.50L366.24 5.50L366.24 5.50Q366.48 5.63 366.67 5.78L366.67 5.78L366.67 5.78Q366.87 5.92 366.94 6.05L366.94 6.05L366.94 6.05Q366.69 6.29 366.44 6.66L366.44 6.66L366.44 6.66Q366.18 7.04 365.94 7.53L365.94 7.53L365.94 7.53Q365.69 8.02 365.46 8.60L365.46 8.60L365.46 8.60Q365.22 9.17 365.01 9.79L365.01 9.79L365.01 9.79Q365.29 10.04 365.29 10.42L365.29 10.42L365.29 10.42Q365.29 10.68 365.18 10.91L365.18 10.91L365.18 10.91Q365.05 10.88 364.92 10.87L364.92 10.87L364.92 10.87Q364.80 10.86 364.66 10.85L364.66 10.85L364.66 10.85Q364.42 11.61 364.22 12.35L364.22 12.35L364.22 12.35Q364.03 13.09 363.89 13.76L363.89 13.76L363.89 13.76Q363.76 14.43 363.68 14.99L363.68 14.99L363.68 14.99Q363.61 15.55 363.61 15.93L363.61 15.93L363.61 15.93Q363.61 16.07 363.61 16.16L363.61 16.16L363.61 16.16Q363.62 16.24 363.64 16.30L363.64 16.30L363.64 16.30Q363.33 16.28 363.19 16.19L363.19 16.19L363.19 16.19Q363.05 16.10 362.98 16.00L362.98 16.00L362.98 16.00Q362.91 15.89 362.85 15.79L362.85 15.79L362.85 15.79Q362.80 15.68 362.67 15.62L362.67 15.62L362.67 15.62Q362.57 15.58 362.49 15.43L362.49 15.43L362.49 15.43Q362.40 15.27 362.35 15.08L362.35 15.08L362.35 15.08Q362.29 14.88 362.26 14.69L362.26 14.69L362.26 14.69Q362.24 14.49 362.24 14.36ZM386.33 6.69L386.33 6.69L386.33 6.69Q385.77 6.69 385.47 6.38L385.47 6.38L385.47 6.38Q385.17 6.06 385.17 5.61L385.17 5.61L385.17 5.61Q385.17 5.50 385.20 5.35L385.20 5.35L385.20 5.35Q385.24 5.19 385.29 5.08L385.29 5.08L385.29 5.08Q385.48 5.17 385.83 5.20L385.83 5.20L385.83 5.20Q386.19 5.24 386.67 5.24L386.67 5.24L386.67 5.24Q387.38 5.24 388.28 5.17L388.28 5.17L388.28 5.17Q389.19 5.11 390.01 5.04L390.01 5.04L390.01 5.04Q390.84 4.97 391.47 4.91L391.47 4.91L391.47 4.91Q392.10 4.84 392.28 4.84L392.28 4.84L392.28 4.84Q392.80 4.84 393.03 5.23L393.03 5.23L393.03 5.23Q393.26 5.61 393.37 6.26L393.37 6.26L393.37 6.26Q393.01 6.23 392.65 6.21L392.65 6.21L392.65 6.21Q392.29 6.19 392.04 6.19L392.04 6.19L392.04 6.19Q391.59 6.19 391.14 6.22L391.14 6.22L391.14 6.22Q390.68 6.24 390.22 6.30L390.22 6.30L390.22 6.30Q390.03 6.71 389.79 7.26L389.79 7.26L389.79 7.26Q389.55 7.81 389.32 8.41L389.32 8.41L389.32 8.41Q389.09 9.02 388.88 9.61L388.88 9.61L388.88 9.61Q388.67 10.21 388.51 10.68L388.51 10.68L388.51 10.68Q388.21 11.61 387.97 12.39L387.97 12.39L387.97 12.39Q387.74 13.17 387.57 13.85L387.57 13.85L387.57 13.85Q387.39 14.53 387.27 15.15L387.27 15.15L387.27 15.15Q387.14 15.76 387.04 16.35L387.04 16.35L387.04 16.35Q386.11 16.21 385.48 15.18L385.48 15.18L385.48 15.18Q385.59 14.74 385.75 14.23L385.75 14.23L385.75 14.23Q385.91 13.72 386.13 13.07L386.13 13.07L386.13 13.07Q386.34 12.42 386.64 11.59L386.64 11.59L386.64 11.59Q386.93 10.77 387.31 9.72L387.31 9.72L387.31 9.72Q387.45 9.32 387.60 8.90L387.60 8.90L387.60 8.90Q387.76 8.47 387.90 8.05L387.90 8.05L387.90 8.05Q388.05 7.63 388.17 7.24L388.17 7.24L388.17 7.24Q388.29 6.85 388.37 6.52L388.37 6.52L388.37 6.52Q387.79 6.59 387.26 6.64L387.26 6.64L387.26 6.64Q386.74 6.69 386.33 6.69ZM404.57 9.21L404.57 9.21L404.57 9.21Q405.03 9.21 405.29 9.46L405.29 9.46L405.29 9.46Q405.55 9.72 405.55 10.16L405.55 10.16L405.55 10.16Q405.55 10.28 405.53 10.39L405.53 10.39L405.53 10.39Q405.51 10.51 405.48 10.60L405.48 10.60L405.48 10.60Q405.30 10.57 405.08 10.55L405.08 10.55L405.08 10.55Q404.85 10.53 404.54 10.53L404.54 10.53L404.54 10.53Q403.94 10.53 403.33 10.63L403.33 10.63L403.33 10.63Q402.71 10.74 402.15 10.81L402.15 10.81L402.15 10.81Q401.83 11.55 401.56 12.24L401.56 12.24L401.56 12.24Q401.30 12.94 401.11 13.51L401.11 13.51L401.11 13.51Q400.92 14.08 400.81 14.50L400.81 14.50L400.81 14.50Q400.71 14.92 400.69 15.13L400.69 15.13L400.69 15.13Q401.83 14.90 402.98 14.73L402.98 14.73L402.98 14.73Q404.14 14.56 405.41 14.48L405.41 14.48L405.41 14.48Q405.57 14.71 405.67 14.99L405.67 14.99L405.67 14.99Q405.78 15.27 405.78 15.60L405.78 15.60L405.78 15.60Q405.78 15.68 405.78 15.78L405.78 15.78L405.78 15.78Q405.78 15.88 405.75 15.97L405.75 15.97L405.75 15.97Q405.36 15.96 404.92 15.95L404.92 15.95L404.92 15.95Q404.49 15.95 403.79 15.95L403.79 15.95L403.79 15.95Q403.33 15.95 402.91 15.97L402.91 15.97L402.91 15.97Q402.50 15.99 402.08 16.03L402.08 16.03L402.08 16.03Q401.66 16.07 401.19 16.14L401.19 16.14L401.19 16.14Q400.72 16.21 400.13 16.31L400.13 16.31L400.13 16.31Q399.49 16.06 398.89 15.08L398.89 15.08L398.89 15.08Q399.13 14.57 399.55 13.54L399.55 13.54L399.55 13.54Q399.98 12.52 400.64 10.79L400.64 10.79L400.64 10.79Q400.01 10.60 399.81 10.09L399.81 10.09L399.81 10.09Q399.88 10.02 400.22 9.92L400.22 9.92L400.22 9.92Q400.55 9.81 401.04 9.70L401.04 9.70L401.04 9.70Q401.25 9.16 401.40 8.75L401.40 8.75L401.40 8.75Q401.55 8.34 401.66 7.99L401.66 7.99L401.66 7.99Q401.77 7.63 401.86 7.29L401.86 7.29L401.86 7.29Q401.95 6.94 402.04 6.54L402.04 6.54L402.04 6.54Q401.55 6.51 401.27 6.27L401.27 6.27L401.27 6.27Q400.99 6.02 400.99 5.63L400.99 5.63L400.99 5.63Q400.99 5.52 401.02 5.36L401.02 5.36L401.02 5.36Q401.06 5.21 401.10 5.10L401.10 5.10L401.10 5.10Q401.38 5.14 401.64 5.15L401.64 5.15L401.64 5.15Q401.90 5.17 402.32 5.17L402.32 5.17L402.32 5.17Q403.20 5.17 403.97 5.12L403.97 5.12L403.97 5.12Q404.74 5.07 405.36 5.01L405.36 5.01L405.36 5.01Q405.99 4.96 406.43 4.91L406.43 4.91L406.43 4.91Q406.88 4.86 407.12 4.86L407.12 4.86L407.12 4.86Q407.44 4.86 407.69 5.19L407.69 5.19L407.69 5.19Q407.95 5.53 408.07 6.15L408.07 6.15L408.07 6.15Q407.64 6.10 407.36 6.09L407.36 6.09L407.36 6.09Q407.09 6.08 406.88 6.08L406.88 6.08L406.88 6.08Q406.11 6.08 405.47 6.15L405.47 6.15L405.47 6.15Q404.84 6.23 404.25 6.31L404.25 6.31L404.25 6.31Q404.17 6.44 404.06 6.64L404.06 6.64L404.06 6.64Q403.96 6.83 403.79 7.18L403.79 7.18L403.79 7.18Q403.62 7.53 403.38 8.06L403.38 8.06L403.38 8.06Q403.13 8.60 402.78 9.39L402.78 9.39L402.78 9.39Q403.31 9.31 403.78 9.26L403.78 9.26L403.78 9.26Q404.25 9.21 404.57 9.21ZM414.75 12.43L414.75 12.43L414.75 12.43Q414.75 11.45 414.98 10.51L414.98 10.51L414.98 10.51Q415.21 9.56 415.63 8.71L415.63 8.71L415.63 8.71Q416.05 7.87 416.63 7.16L416.63 7.16L416.63 7.16Q417.21 6.45 417.91 5.94L417.91 5.94L417.91 5.94Q418.60 5.42 419.38 5.13L419.38 5.13L419.38 5.13Q420.17 4.84 420.99 4.84L420.99 4.84L420.99 4.84Q421.96 4.84 422.50 5.25L422.50 5.25L422.50 5.25Q423.04 5.66 423.04 6.38L423.04 6.38L423.04 6.38Q423.04 6.66 422.96 6.96L422.96 6.96L422.96 6.96Q422.88 7.25 422.74 7.54L422.74 7.54L422.74 7.54Q422.59 7.83 422.39 8.09L422.39 8.09L422.39 8.09Q422.20 8.36 421.96 8.55L421.96 8.55L421.96 8.55Q421.60 8.50 421.33 8.22L421.33 8.22L421.33 8.22Q421.06 7.95 420.99 7.59L420.99 7.59L420.99 7.59Q421.48 7.18 421.77 6.74L421.77 6.74L421.77 6.74Q422.06 6.30 422.06 5.94L422.06 5.94L422.06 5.94Q422.06 5.32 421.29 5.32L421.29 5.32L421.29 5.32Q420.97 5.32 420.62 5.45L420.62 5.45L420.62 5.45Q420.28 5.59 419.93 5.82L419.93 5.82L419.93 5.82Q419.58 6.06 419.25 6.40L419.25 6.40L419.25 6.40Q418.92 6.73 418.64 7.14L418.64 7.14L418.64 7.14Q416.70 9.94 416.70 12.87L416.70 12.87L416.70 12.87Q416.70 13.90 417.02 14.53L417.02 14.53L417.02 14.53Q417.34 15.16 417.87 15.27L417.87 15.27L417.87 15.27Q418.47 15.13 419.40 14.50L419.40 14.50L419.40 14.50Q420.32 13.87 421.41 12.87L421.41 12.87L421.41 12.87Q421.55 13.01 421.58 13.16L421.58 13.16L421.58 13.16Q421.18 13.69 420.74 14.18L420.74 14.18L420.74 14.18Q420.31 14.67 419.88 15.08L419.88 15.08L419.88 15.08Q419.45 15.48 419.04 15.79L419.04 15.79L419.04 15.79Q418.63 16.10 418.28 16.27L418.28 16.27L418.28 16.27Q416.54 16.24 415.65 15.27L415.65 15.27L415.65 15.27Q414.75 14.31 414.75 12.43ZM435.09 14.36L435.09 14.36L435.09 14.36Q435.09 13.78 435.29 12.85L435.29 12.85L435.29 12.85Q435.48 11.93 435.81 10.88L435.81 10.88L435.81 10.88Q434.88 10.95 433.95 11.06L433.95 11.06L433.95 11.06Q433.02 11.17 432.33 11.19L432.33 11.19L432.33 11.19Q431.70 12.66 431.33 13.89L431.33 13.89L431.33 13.89Q430.96 15.13 430.75 16.31L430.75 16.31L430.75 16.31Q430.22 16.18 429.87 15.87L429.87 15.87L429.87 15.87Q429.52 15.55 429.23 15.08L429.23 15.08L429.23 15.08Q429.34 14.85 429.49 14.50L429.49 14.50L429.49 14.50Q429.63 14.15 429.84 13.66L429.84 13.66L429.84 13.66Q430.04 13.16 430.30 12.50L430.30 12.50L430.30 12.50Q430.56 11.83 430.89 10.95L430.89 10.95L430.89 10.95Q430.43 10.75 430.28 10.40L430.28 10.40L430.28 10.40Q430.35 10.35 430.59 10.28L430.59 10.28L430.59 10.28Q430.84 10.22 431.20 10.15L431.20 10.15L431.38 9.70L431.38 9.70Q431.68 8.95 431.87 8.43L431.87 8.43L431.87 8.43Q432.05 7.91 432.19 7.41L432.19 7.41L432.19 7.41Q432.32 6.92 432.44 6.31L432.44 6.31L432.44 6.31Q432.56 5.71 432.73 4.79L432.73 4.79L432.73 4.79Q433.31 4.90 433.80 5.31L433.80 5.31L433.80 5.31Q434.28 5.71 434.63 6.29L434.63 6.29L434.63 6.29Q434.50 6.45 434.32 6.79L434.32 6.79L434.32 6.79Q434.14 7.13 433.92 7.59L433.92 7.59L433.92 7.59Q433.71 8.06 433.45 8.64L433.45 8.64L433.45 8.64Q433.20 9.23 432.91 9.87L432.91 9.87L432.91 9.87Q433.78 9.76 434.67 9.66L434.67 9.66L434.67 9.66Q435.55 9.56 436.24 9.52L436.24 9.52L436.24 9.52Q436.49 8.79 436.77 8.10L436.77 8.10L436.77 8.10Q437.04 7.41 437.30 6.83L437.30 6.83L437.30 6.83Q437.57 6.26 437.81 5.82L437.81 5.82L437.81 5.82Q438.06 5.39 438.26 5.18L438.26 5.18L438.26 5.18Q438.40 5.19 438.63 5.29L438.63 5.29L438.63 5.29Q438.86 5.38 439.10 5.50L439.10 5.50L439.10 5.50Q439.33 5.63 439.53 5.78L439.53 5.78L439.53 5.78Q439.73 5.92 439.80 6.05L439.80 6.05L439.80 6.05Q439.54 6.29 439.29 6.66L439.29 6.66L439.29 6.66Q439.04 7.04 438.80 7.53L438.80 7.53L438.80 7.53Q438.55 8.02 438.31 8.60L438.31 8.60L438.31 8.60Q438.07 9.17 437.86 9.79L437.86 9.79L437.86 9.79Q438.14 10.04 438.14 10.42L438.14 10.42L438.14 10.42Q438.14 10.68 438.03 10.91L438.03 10.91L438.03 10.91Q437.91 10.88 437.78 10.87L437.78 10.87L437.78 10.87Q437.65 10.86 437.51 10.85L437.51 10.85L437.51 10.85Q437.28 11.61 437.08 12.35L437.08 12.35L437.08 12.35Q436.88 13.09 436.75 13.76L436.75 13.76L436.75 13.76Q436.62 14.43 436.54 14.99L436.54 14.99L436.54 14.99Q436.46 15.55 436.46 15.93L436.46 15.93L436.46 15.93Q436.46 16.07 436.47 16.16L436.47 16.16L436.47 16.16Q436.48 16.24 436.49 16.30L436.49 16.30L436.49 16.30Q436.18 16.28 436.04 16.19L436.04 16.19L436.04 16.19Q435.90 16.10 435.83 16.00L435.83 16.00L435.83 16.00Q435.76 15.89 435.71 15.79L435.71 15.79L435.71 15.79Q435.65 15.68 435.53 15.62L435.53 15.62L435.53 15.62Q435.43 15.58 435.34 15.43L435.34 15.43L435.34 15.43Q435.26 15.27 435.20 15.08L435.20 15.08L435.20 15.08Q435.15 14.88 435.12 14.69L435.12 14.69L435.12 14.69Q435.09 14.49 435.09 14.36ZM447.33 16.24L447.33 16.24L447.33 16.24Q446.53 16.00 446.25 15.79L446.25 15.79L446.25 15.79Q445.97 15.57 445.97 15.19L445.97 15.19L445.97 15.19Q445.97 14.77 446.17 14.01L446.17 14.01L446.17 14.01Q446.36 13.24 446.68 12.31L446.68 12.31L446.68 12.31Q446.99 11.37 447.40 10.35L447.40 10.35L447.40 10.35Q447.80 9.32 448.22 8.39L448.22 8.39L448.22 8.39Q448.64 7.45 449.04 6.67L449.04 6.67L449.04 6.67Q449.44 5.89 449.75 5.46L449.75 5.46L449.65 4.87L449.65 4.87Q449.85 4.87 450.20 4.97L450.20 4.97L450.20 4.97Q450.55 5.07 450.91 5.21L450.91 5.21L450.91 5.21Q451.26 5.35 451.54 5.49L451.54 5.49L451.54 5.49Q451.81 5.64 451.84 5.74L451.84 5.74L451.84 5.74Q451.77 6.08 451.72 6.76L451.72 6.76L451.72 6.76Q451.68 7.43 451.68 8.20L451.68 8.20L451.68 8.20Q451.68 9.73 451.80 11.19L451.80 11.19L451.80 11.19Q451.92 12.66 452.35 14.17L452.35 14.17L452.35 14.17Q452.58 13.05 452.84 11.94L452.84 11.94L452.84 11.94Q453.10 10.82 453.38 9.81L453.38 9.81L453.38 9.81Q453.66 8.79 453.94 7.92L453.94 7.92L453.94 7.92Q454.22 7.06 454.48 6.40L454.48 6.40L454.48 6.40Q454.73 5.75 454.96 5.38L454.96 5.38L454.96 5.38Q455.18 5.01 455.36 4.98L455.36 4.98L455.36 4.98Q455.52 5.01 455.70 5.10L455.70 5.10L455.70 5.10Q455.88 5.19 456.05 5.32L456.05 5.32L456.05 5.32Q456.22 5.45 456.36 5.60L456.36 5.60L456.36 5.60Q456.50 5.75 456.58 5.91L456.58 5.91L456.58 5.91Q456.13 6.09 455.69 6.76L455.69 6.76L455.69 6.76Q455.25 7.43 454.85 8.39L454.85 8.39L454.85 8.39Q454.45 9.35 454.11 10.47L454.11 10.47L454.11 10.47Q453.77 11.59 453.51 12.68L453.51 12.68L453.51 12.68Q453.25 13.76 453.10 14.69L453.10 14.69L453.10 14.69Q452.96 15.61 452.94 16.17L452.94 16.17L452.94 16.17Q452.94 16.20 452.96 16.21L452.96 16.21L452.96 16.21Q452.91 16.23 452.87 16.23L452.87 16.23L452.87 16.23Q452.82 16.23 452.77 16.23L452.77 16.23L452.77 16.23Q452.13 16.23 451.63 16.07L451.63 16.07L451.63 16.07Q451.14 15.90 450.98 15.61L450.98 15.61L450.98 15.61Q450.69 14.43 450.49 13.34L450.49 13.34L450.49 13.34Q450.30 12.25 450.16 11.16L450.16 11.16L450.16 11.16Q450.03 10.07 449.95 8.95L449.95 8.95L449.95 8.95Q449.88 7.84 449.83 6.62L449.83 6.62L449.83 6.62Q449.57 7.04 449.27 7.72L449.27 7.72L449.27 7.72Q448.98 8.40 448.70 9.21L448.70 9.21L448.70 9.21Q448.42 10.02 448.16 10.92L448.16 10.92L448.16 10.92Q447.90 11.82 447.71 12.67L447.71 12.67L447.71 12.67Q447.51 13.52 447.40 14.29L447.40 14.29L447.40 14.29Q447.29 15.05 447.29 15.61L447.29 15.61L447.29 15.61Q447.29 15.90 447.29 16.03L447.29 16.03L447.29 16.03Q447.30 16.16 447.33 16.24ZM469.10 4.98L469.10 4.98L469.10 4.98Q469.36 5.10 469.64 5.27L469.64 5.27L469.64 5.27Q469.92 5.45 470.16 5.63L470.16 5.63L470.16 5.63Q470.40 5.81 470.56 5.98L470.56 5.98L470.56 5.98Q470.72 6.16 470.74 6.27L470.74 6.27L470.74 6.27Q470.50 6.22 470.26 6.20L470.26 6.20L470.26 6.20Q470.02 6.17 469.83 6.17L469.83 6.17L469.83 6.17Q469.20 6.17 468.57 6.48L468.57 6.48L468.57 6.48Q467.95 6.79 467.39 7.32L467.39 7.32L467.39 7.32Q466.83 7.85 466.35 8.57L466.35 8.57L466.35 8.57Q465.88 9.28 465.54 10.09L465.54 10.09L465.54 10.09Q465.19 10.91 465.00 11.77L465.00 11.77L465.00 11.77Q464.80 12.64 464.80 13.48L464.80 13.48L464.80 13.48Q464.80 14.57 465.16 15.11L465.16 15.11L465.16 15.11Q465.53 15.64 466.23 15.64L466.23 15.64L466.23 15.64Q466.56 15.64 466.96 15.51L466.96 15.51L466.96 15.51Q467.35 15.37 467.75 15.13L467.75 15.13L467.75 15.13Q468.16 14.90 468.55 14.56L468.55 14.56L468.55 14.56Q468.94 14.22 469.28 13.82L469.28 13.82L469.28 13.82Q469.77 13.23 470.16 12.48L470.16 12.48L470.16 12.48Q470.55 11.73 470.83 10.89L470.83 10.89L470.83 10.89Q471.10 10.05 471.25 9.16L471.25 9.16L471.25 9.16Q471.39 8.27 471.39 7.42L471.39 7.42L471.39 7.42Q471.39 7.08 471.38 6.85L471.38 6.85L471.38 6.85Q471.37 6.62 471.35 6.46L471.35 6.46L471.35 6.46Q471.32 6.30 471.31 6.20L471.31 6.20L471.31 6.20Q471.30 6.10 471.28 6.03L471.28 6.03L471.28 6.03Q471.45 6.12 471.65 6.24L471.65 6.24L471.65 6.24Q471.86 6.36 472.03 6.59L472.03 6.59L472.03 6.59Q472.21 6.82 472.33 7.20L472.33 7.20L472.33 7.20Q472.44 7.57 472.44 8.18L472.44 8.18L472.44 8.18Q472.44 9.16 472.21 10.10L472.21 10.10L472.21 10.10Q471.98 11.05 471.57 11.90L471.57 11.90L471.57 11.90Q471.16 12.75 470.60 13.50L470.60 13.50L470.60 13.50Q470.04 14.24 469.39 14.80L469.39 14.80L469.39 14.80Q468.55 15.54 467.60 15.95L467.60 15.95L467.60 15.95Q466.65 16.35 465.77 16.35L465.77 16.35L465.77 16.35Q464.48 16.35 463.80 15.53L463.80 15.53L463.80 15.53Q463.12 14.71 463.12 13.12L463.12 13.12L463.12 13.12Q463.12 12.26 463.31 11.31L463.31 11.31L463.31 11.31Q463.50 10.36 463.84 9.44L463.84 9.44L463.84 9.44Q464.18 8.51 464.66 7.68L464.66 7.68L464.66 7.68Q465.14 6.85 465.70 6.21L465.70 6.21L465.70 6.21Q466.27 5.57 466.92 5.19L466.92 5.19L466.92 5.19Q467.57 4.82 468.26 4.82L468.26 4.82L468.26 4.82Q468.48 4.82 468.68 4.85L468.68 4.85L468.68 4.85Q468.87 4.89 469.10 4.98ZM484.97 14.38L484.97 14.38L484.97 14.38Q485.32 14.98 485.32 15.54L485.32 15.54L485.32 15.54Q485.32 15.67 485.30 15.77L485.30 15.77L485.30 15.77Q485.28 15.88 485.25 15.99L485.25 15.99L485.25 15.99Q485.02 15.96 484.76 15.95L484.76 15.95L484.76 15.95Q484.50 15.93 484.22 15.93L484.22 15.93L484.22 15.93Q483.88 15.93 483.54 15.95L483.54 15.95L483.54 15.95Q483.20 15.97 482.78 16.02L482.78 16.02L482.78 16.02Q482.36 16.06 481.84 16.13L481.84 16.13L481.84 16.13Q481.32 16.20 480.63 16.31L480.63 16.31L480.63 16.31Q480.31 16.20 479.99 15.87L479.99 15.87L479.99 15.87Q479.67 15.54 479.39 15.08L479.39 15.08L479.39 15.08Q479.53 14.77 479.74 14.31L479.74 14.31L479.74 14.31Q479.95 13.86 480.23 13.21L480.23 13.21L480.23 13.21Q480.51 12.56 480.85 11.68L480.85 11.68L480.85 11.68Q481.19 10.81 481.59 9.66L481.59 9.66L481.59 9.66Q481.84 8.90 482.02 8.33L482.02 8.33L482.02 8.33Q482.20 7.76 482.35 7.22L482.35 7.22L482.35 7.22Q482.50 6.68 482.64 6.09L482.64 6.09L482.64 6.09Q482.78 5.50 482.94 4.73L482.94 4.73L482.94 4.73Q483.50 4.84 483.92 5.14L483.92 5.14L483.92 5.14Q484.33 5.45 484.71 6.01L484.71 6.01L484.71 6.01Q484.60 6.19 484.41 6.59L484.41 6.59L484.41 6.59Q484.23 7 483.99 7.58L483.99 7.58L483.99 7.58Q483.74 8.16 483.45 8.90L483.45 8.90L483.45 8.90Q483.15 9.63 482.83 10.47L482.83 10.47L482.83 10.47Q482.52 11.30 482.23 12.03L482.23 12.03L482.23 12.03Q481.94 12.75 481.71 13.34L481.71 13.34L481.71 13.34Q481.47 13.93 481.33 14.35L481.33 14.35L481.33 14.35Q481.19 14.77 481.19 14.98L481.19 14.98L481.19 14.98Q481.42 14.97 481.60 14.95L481.60 14.95L481.60 14.95Q481.78 14.94 481.98 14.90L481.98 14.90L481.98 14.90Q482.17 14.87 482.41 14.82L482.41 14.82L482.41 14.82Q482.64 14.77 482.96 14.69L482.96 14.69L482.96 14.69Q483.24 14.62 483.48 14.57L483.48 14.57L483.48 14.57Q483.71 14.52 483.95 14.48L483.95 14.48L483.95 14.48Q484.18 14.45 484.42 14.43L484.42 14.43L484.42 14.43Q484.67 14.41 484.97 14.38ZM499.77 4.98L499.77 4.98L499.77 4.98Q500.04 5.10 500.32 5.27L500.32 5.27L500.32 5.27Q500.60 5.45 500.84 5.63L500.84 5.63L500.84 5.63Q501.07 5.81 501.24 5.98L501.24 5.98L501.24 5.98Q501.40 6.16 501.41 6.27L501.41 6.27L501.41 6.27Q501.17 6.22 500.93 6.20L500.93 6.20L500.93 6.20Q500.70 6.17 500.50 6.17L500.50 6.17L500.50 6.17Q499.87 6.17 499.25 6.48L499.25 6.48L499.25 6.48Q498.62 6.79 498.06 7.32L498.06 7.32L498.06 7.32Q497.50 7.85 497.03 8.57L497.03 8.57L497.03 8.57Q496.55 9.28 496.21 10.09L496.21 10.09L496.21 10.09Q495.87 10.91 495.67 11.77L495.67 11.77L495.67 11.77Q495.47 12.64 495.47 13.48L495.47 13.48L495.47 13.48Q495.47 14.57 495.84 15.11L495.84 15.11L495.84 15.11Q496.20 15.64 496.90 15.64L496.90 15.64L496.90 15.64Q497.24 15.64 497.63 15.51L497.63 15.51L497.63 15.51Q498.02 15.37 498.43 15.13L498.43 15.13L498.43 15.13Q498.83 14.90 499.23 14.56L499.23 14.56L499.23 14.56Q499.62 14.22 499.95 13.82L499.95 13.82L499.95 13.82Q500.44 13.23 500.84 12.48L500.84 12.48L500.84 12.48Q501.23 11.73 501.50 10.89L501.50 10.89L501.50 10.89Q501.77 10.05 501.92 9.16L501.92 9.16L501.92 9.16Q502.07 8.27 502.07 7.42L502.07 7.42L502.07 7.42Q502.07 7.08 502.05 6.85L502.05 6.85L502.05 6.85Q502.04 6.62 502.02 6.46L502.02 6.46L502.02 6.46Q502.00 6.30 501.98 6.20L501.98 6.20L501.98 6.20Q501.97 6.10 501.96 6.03L501.96 6.03L501.96 6.03Q502.12 6.12 502.33 6.24L502.33 6.24L502.33 6.24Q502.53 6.36 502.71 6.59L502.71 6.59L502.71 6.59Q502.88 6.82 503.00 7.20L503.00 7.20L503.00 7.20Q503.12 7.57 503.12 8.18L503.12 8.18L503.12 8.18Q503.12 9.16 502.89 10.10L502.89 10.10L502.89 10.10Q502.66 11.05 502.24 11.90L502.24 11.90L502.24 11.90Q501.83 12.75 501.27 13.50L501.27 13.50L501.27 13.50Q500.71 14.24 500.07 14.80L500.07 14.80L500.07 14.80Q499.23 15.54 498.27 15.95L498.27 15.95L498.27 15.95Q497.32 16.35 496.44 16.35L496.44 16.35L496.44 16.35Q495.15 16.35 494.47 15.53L494.47 15.53L494.47 15.53Q493.79 14.71 493.79 13.12L493.79 13.12L493.79 13.12Q493.79 12.26 493.98 11.31L493.98 11.31L493.98 11.31Q494.17 10.36 494.52 9.44L494.52 9.44L494.52 9.44Q494.86 8.51 495.33 7.68L495.33 7.68L495.33 7.68Q495.81 6.85 496.38 6.21L496.38 6.21L496.38 6.21Q496.94 5.57 497.60 5.19L497.60 5.19L497.60 5.19Q498.25 4.82 498.93 4.82L498.93 4.82L498.93 4.82Q499.16 4.82 499.35 4.85L499.35 4.85L499.35 4.85Q499.55 4.89 499.77 4.98ZM518.20 10.72L518.20 10.72L518.20 10.72Q518.56 10.72 518.77 10.98L518.77 10.98L518.77 10.98Q518.98 11.23 518.98 11.68L518.98 11.68L518.98 11.68Q518.98 11.79 518.97 11.91L518.97 11.91L518.97 11.91Q518.95 12.03 518.92 12.11L518.92 12.11L518.92 12.11Q518.63 12.04 518.28 12.03L518.28 12.03L518.28 12.03Q518.20 12.64 517.83 13.32L517.83 13.32L517.83 13.32Q517.47 14 516.95 14.60L516.95 14.60L516.95 14.60Q516.43 15.19 515.82 15.64L515.82 15.64L515.82 15.64Q515.20 16.09 514.60 16.24L514.60 16.24L514.60 16.24Q512.72 16.20 511.86 15.27L511.86 15.27L511.86 15.27Q511.00 14.34 511.00 12.36L511.00 12.36L511.00 12.36Q511.00 10.92 511.53 9.57L511.53 9.57L511.53 9.57Q512.06 8.22 512.95 7.17L512.95 7.17L512.95 7.17Q513.83 6.12 514.97 5.48L514.97 5.48L514.97 5.48Q516.11 4.84 517.34 4.84L517.34 4.84L517.34 4.84Q518.31 4.84 518.85 5.25L518.85 5.25L518.85 5.25Q519.39 5.66 519.39 6.40L519.39 6.40L519.39 6.40Q519.39 6.89 519.16 7.31L519.16 7.31L519.16 7.31Q518.92 7.73 518.39 8.22L518.39 8.22L518.39 8.22Q518.07 8.12 517.83 7.88L517.83 7.88L517.83 7.88Q517.59 7.63 517.54 7.31L517.54 7.31L517.54 7.31Q518.01 6.96 518.21 6.66L518.21 6.66L518.21 6.66Q518.41 6.37 518.41 5.96L518.41 5.96L518.41 5.96Q518.41 5.32 517.64 5.32L517.64 5.32L517.64 5.32Q517.01 5.32 516.29 5.79L516.29 5.79L516.29 5.79Q515.56 6.26 514.84 7.14L514.84 7.14L514.84 7.14Q513.80 8.39 513.32 9.71L513.32 9.71L513.32 9.71Q512.85 11.03 512.85 12.68L512.85 12.68L512.85 12.68Q512.85 13.30 512.97 13.80L512.97 13.80L512.97 13.80Q513.10 14.31 513.31 14.69L513.31 14.69L513.31 14.69Q513.52 15.06 513.81 15.29L513.81 15.29L513.81 15.29Q514.09 15.51 514.43 15.54L514.43 15.54L514.43 15.54Q514.88 15.44 515.33 15.09L515.33 15.09L515.33 15.09Q515.77 14.73 516.15 14.25L516.15 14.25L516.15 14.25Q516.52 13.76 516.78 13.21L516.78 13.21L516.78 13.21Q517.03 12.66 517.09 12.15L517.09 12.15L517.09 12.15Q516.70 12.24 516.34 12.31L516.34 12.31L516.34 12.31Q515.98 12.39 515.66 12.39L515.66 12.39L515.66 12.39Q515.24 12.39 514.93 12.18L514.93 12.18L514.93 12.18Q514.61 11.97 514.50 11.61L514.50 11.61L514.50 11.61Q514.75 11.47 515.24 11.31L515.24 11.31L515.24 11.31Q515.72 11.16 516.26 11.03L516.26 11.03L516.26 11.03Q516.81 10.89 517.34 10.81L517.34 10.81L517.34 10.81Q517.86 10.72 518.20 10.72ZM531.17 10.35L531.17 10.35L531.17 10.35Q532.22 9.20 533.06 7.91L533.06 7.91L533.06 7.91Q533.89 6.62 534.60 5.01L534.60 5.01L534.60 5.01Q534.97 5.05 535.30 5.21L535.30 5.21L535.30 5.21Q535.64 5.36 535.84 5.56L535.84 5.56L535.84 5.56Q535.07 6.48 534.44 7.24L534.44 7.24L534.44 7.24Q533.82 7.99 533.30 8.66L533.30 8.66L533.30 8.66Q532.78 9.32 532.34 9.93L532.34 9.93L532.34 9.93Q531.90 10.54 531.48 11.16L531.48 11.16L531.48 11.16Q531.27 11.87 531.09 12.60L531.09 12.60L531.09 12.60Q530.91 13.33 530.77 13.99L530.77 13.99L530.77 13.99Q530.63 14.66 530.55 15.22L530.55 15.22L530.55 15.22Q530.47 15.79 530.47 16.20L530.47 16.20L530.47 16.20Q530.32 16.20 529.98 16.14L529.98 16.14L529.98 16.14Q529.65 16.07 529.30 15.99L529.30 15.99L529.30 15.99Q528.95 15.90 528.66 15.82L528.66 15.82L528.66 15.82Q528.37 15.74 528.32 15.68L528.32 15.68L528.32 15.68Q528.54 15.30 528.76 14.75L528.76 14.75L528.76 14.75Q528.98 14.20 529.19 13.59L529.19 13.59L529.19 13.59Q529.40 12.98 529.59 12.36L529.59 12.36L529.59 12.36Q529.79 11.73 529.96 11.20L529.96 11.20L529.96 11.20Q529.61 10.11 529.28 9.15L529.28 9.15L529.28 9.15Q528.95 8.19 528.64 7.41L528.64 7.41L528.64 7.41Q528.33 6.64 528.05 6.08L528.05 6.08L528.05 6.08Q527.77 5.52 527.52 5.22L527.52 5.22L527.52 5.22Q527.66 5.17 527.95 5.11L527.95 5.11L527.95 5.11Q528.23 5.05 528.58 5.00L528.58 5.00L528.58 5.00Q528.92 4.94 529.28 4.91L529.28 4.91L529.28 4.91Q529.63 4.87 529.91 4.86L529.91 4.86L529.91 4.86Q529.91 5.21 529.98 5.71L529.98 5.71L529.98 5.71Q530.04 6.22 530.15 6.79L530.15 6.79L530.15 6.79Q530.25 7.36 530.39 7.95L530.39 7.95L530.39 7.95Q530.53 8.54 530.67 9.03L530.67 9.03L530.67 9.03Q530.81 9.52 530.94 9.88L530.94 9.88L530.94 9.88Q531.08 10.23 531.17 10.35Z"></path></g></svg>